<?xml version="1.0" encoding="UTF-8" standalone="no"?>
<!-- Created with Inkscape (http://www.inkscape.org/) -->

<svg
   xmlns:osb="http://www.openswatchbook.org/uri/2009/osb"
   xmlns:dc="http://purl.org/dc/elements/1.1/"
   xmlns:cc="http://creativecommons.org/ns#"
   xmlns:rdf="http://www.w3.org/1999/02/22-rdf-syntax-ns#"
   xmlns:svg="http://www.w3.org/2000/svg"
   xmlns="http://www.w3.org/2000/svg"
   xmlns:sodipodi="http://sodipodi.sourceforge.net/DTD/sodipodi-0.dtd"
   xmlns:inkscape="http://www.inkscape.org/namespaces/inkscape"
   width="1670cm"
   height="1179.2814cm"
   viewBox="0 0 16700 11792.814"
   version="1.1"
   id="svg8"
   inkscape:version="0.92.1 r15371"
   sodipodi:docname="floorplan.svg">
  <defs
     id="defs2">
    <linearGradient
       id="linearGradient4512"
       osb:paint="solid">
      <stop
         style="stop-color:#000000;stop-opacity:1;"
         offset="0"
         id="stop4510" />
    </linearGradient>
  </defs>
  <sodipodi:namedview
     id="base"
     pagecolor="#ffffff"
     bordercolor="#666666"
     borderopacity="1.0"
     inkscape:pageopacity="0.0"
     inkscape:pageshadow="2"
     inkscape:zoom="0.01"
     inkscape:cx="11328.885"
     inkscape:cy="15120.282"
     inkscape:document-units="mm"
     inkscape:current-layer="layer1"
     showgrid="true"
     units="cm"
     inkscape:window-width="1920"
     inkscape:window-height="1017"
     inkscape:window-x="-8"
     inkscape:window-y="-8"
     inkscape:window-maximized="1"
     fit-margin-top="50"
     fit-margin-left="600"
     fit-margin-right="50"
     fit-margin-bottom="50">
    <inkscape:grid
       type="xygrid"
       id="grid10"
       units="cm"
       spacingx="9.9999999"
       spacingy="9.9999999"
       originx="3650.0002"
       originy="-1709.9997" />
  </sodipodi:namedview>
  <metadata
     id="metadata5">
    <rdf:RDF>
      <cc:Work
         rdf:about="">
        <dc:format>image/svg+xml</dc:format>
        <dc:type
           rdf:resource="http://purl.org/dc/dcmitype/StillImage" />
        <dc:title></dc:title>
      </cc:Work>
    </rdf:RDF>
  </metadata>
  <g
     inkscape:label="Layer 1"
     inkscape:groupmode="layer"
     id="layer1"
     transform="translate(3650.0003,13205.813)">
    <rect
       style="opacity:1;vector-effect:none;fill:#799fb4;fill-opacity:1;stroke:none;stroke-width:46.58374786;stroke-linecap:butt;stroke-linejoin:miter;stroke-miterlimit:4;stroke-dasharray:none;stroke-dashoffset:0;stroke-opacity:1"
       id="rect5005"
       width="15091.726"
       height="11273.168"
       x="-2200"
       y="-12976.163"
       ry="473.16394" />
    <path
       style="opacity:1;fill:#000000;fill-opacity:1;stroke:none;stroke-width:37.79527664;stroke-linecap:butt;stroke-linejoin:miter;stroke-miterlimit:4;stroke-dasharray:none;stroke-dashoffset:0;stroke-opacity:1"
       d="m 8881.8887,7559.0547 v 377.9531 0 24264.5702 0 377.932 0.02 H 24377.951 v 15760.627 0 h 23055.117 v 0 0 -40781.1033 0 H 8881.8888 Z m 377.9531,377.9531 H 24377.953 v 8012.5972 0 377.95 0 3779.502 0 h 377.951 v 0 -3779.502 h 8881.889 v 3779.533 377.951 9259.842 h -8881.891 -377.951 v 0 377.951 2078.74 H 9259.8398 V 7937.0018 Z m 15496.0642,0 h 8881.889 v 8012.5972 h -8881.889 z m 9259.842,0 h 13039.369 v 8012.5972 h -7559.055 -377.951 -5102.363 z m 0,8390.5512 h 5102.361 v 3779.531 h -5102.361 z m 5480.314,0 h 7559.055 v 3779.531 h -7559.055 z m -5480.314,4157.484 h 5102.361 v 9259.842 h -5102.361 z m 5480.314,0 h 7559.055 v 9259.842 h -7559.055 z m -14740.158,9637.795 h 8881.891 v 17839.367 h -8881.891 v -15382.674 0 -377.951 0 -2078.74 z m 9259.844,0 H 47055.117 V 47962.205 H 34015.748 Z"
       transform="matrix(0.26458333,0,0,0.26458333,0,-14703)"
       id="rect3687"
       inkscape:connector-curvature="0" />
    <path
       style="opacity:1;fill:#9b9b9b;fill-opacity:1;stroke:none;stroke-width:37.79527664;stroke-linecap:butt;stroke-linejoin:miter;stroke-miterlimit:4;stroke-dasharray:none;stroke-dashoffset:0;stroke-opacity:1"
       d="m 8881.8906,32579.529 v 7559.055 377.953 0 H 24377.953 v -377.955 H 9259.8418 v -7559.055 h -377.9512 z"
       transform="matrix(0.26458333,0,0,0.26458333,0,-14703)"
       id="rect4545"
       inkscape:connector-curvature="0" />
    <rect
       style="opacity:1;fill:#ff0000;fill-opacity:1;stroke:none;stroke-width:10;stroke-linecap:butt;stroke-linejoin:miter;stroke-miterlimit:4;stroke-dasharray:none;stroke-dashoffset:0;stroke-opacity:1"
       id="rect4552"
       width="2050"
       height="100.00022"
       x="2450"
       y="-6182.9995"
       ry="0.00020003637" />
    <rect
       style="opacity:1;fill:#ff0000;fill-opacity:1;stroke:none;stroke-width:10;stroke-linecap:butt;stroke-linejoin:miter;stroke-miterlimit:4;stroke-dasharray:none;stroke-dashoffset:0;stroke-opacity:1"
       id="rect4554"
       width="939.99994"
       height="100.00006"
       x="5500"
       y="-6183"
       ry="0.00020003637" />
    <rect
       style="opacity:1;fill:#ff0000;fill-opacity:1;stroke:none;stroke-width:10;stroke-linecap:butt;stroke-linejoin:miter;stroke-miterlimit:4;stroke-dasharray:none;stroke-dashoffset:0;stroke-opacity:1"
       id="rect4563"
       width="100.00006"
       height="1149.9971"
       x="6450"
       y="-3262.9995"
       ry="0.00020003637" />
    <rect
       style="opacity:1;fill:#ff0000;fill-opacity:1;stroke:none;stroke-width:10;stroke-linecap:butt;stroke-linejoin:miter;stroke-miterlimit:4;stroke-dasharray:none;stroke-dashoffset:0;stroke-opacity:1"
       id="rect4565"
       width="100.00006"
       height="590.00006"
       x="6450"
       y="-3862.9995"
       ry="0.00020003637" />
    <rect
       style="opacity:1;fill:#ff0000;fill-opacity:1;stroke:none;stroke-width:10;stroke-linecap:butt;stroke-linejoin:miter;stroke-miterlimit:4;stroke-dasharray:none;stroke-dashoffset:0;stroke-opacity:1"
       id="rect4591"
       width="1160.0001"
       height="100.00043"
       x="11290"
       y="-2012.9995"
       ry="0.00020003637" />
    <rect
       style="opacity:1;fill:#ff0000;fill-opacity:1;stroke:none;stroke-width:10;stroke-linecap:butt;stroke-linejoin:miter;stroke-miterlimit:4;stroke-dasharray:none;stroke-dashoffset:0;stroke-opacity:1"
       id="rect4598"
       width="590.00012"
       height="100.00052"
       x="10690"
       y="-2012.9995"
       ry="0.00020003637" />
    <rect
       style="opacity:1;fill:#ff0000;fill-opacity:1;stroke:none;stroke-width:10;stroke-linecap:butt;stroke-linejoin:miter;stroke-miterlimit:4;stroke-dasharray:none;stroke-dashoffset:0;stroke-opacity:1"
       id="rect4600"
       width="100"
       height="1249.9999"
       x="12450"
       y="-8082.9995"
       ry="0.00020003637" />
    <rect
       style="opacity:1;fill:#ff0000;fill-opacity:1;stroke:none;stroke-width:10;stroke-linecap:butt;stroke-linejoin:miter;stroke-miterlimit:4;stroke-dasharray:none;stroke-dashoffset:0;stroke-opacity:1"
       id="rect4602"
       width="100"
       height="1200"
       x="12450"
       y="-9282.999"
       ry="0.00020003637" />
    <rect
       style="opacity:1;fill:#ff0000;fill-opacity:1;stroke:none;stroke-width:10;stroke-linecap:butt;stroke-linejoin:miter;stroke-miterlimit:4;stroke-dasharray:none;stroke-dashoffset:0;stroke-opacity:1"
       id="rect4604"
       width="100.00012"
       height="859.99969"
       x="12450"
       y="-11343"
       ry="0.00020003637" />
    <rect
       style="opacity:1;fill:#ff0000;fill-opacity:1;stroke:none;stroke-width:10;stroke-linecap:butt;stroke-linejoin:miter;stroke-miterlimit:4;stroke-dasharray:none;stroke-dashoffset:0;stroke-opacity:1"
       id="rect4606"
       width="100.00012"
       height="849.99969"
       x="12450"
       y="-12203"
       ry="0.00020003637" />
    <path
       id="media_player.kodi_on_firetv"
       d="m 2961.8736,-11941.085 c -7.584,0 -15.4118,4.063 -22.2102,10.835 -30.4583,30.336 -60.5645,60.537 -90.657,90.602 -7.8549,8.126 -10.0216,12.189 -17.9172,19.367 -10.4281,8.126 -15.0599,18.96 -14.6942,32.232 1.3542,46.182 1.3542,91.686 1.3542,138.003 0,47.671 0,96.29 0,144.368 0,4.063 0,6.772 1.3545,9.48 2.844,10.835 10.0217,13.679 17.9173,5.417 42.9991,-43.066 81.3391,-82.07 124.3382,-125.407 48.7274,-48.755 97.8208,-97.51 146.5486,-146.671 14.6941,-14.22 14.6941,-30.336 0,-44.692 -41.2113,-41.306 -83.1271,-81.664 -123.9726,-123.241 -7.1777,-6.771 -13.9761,-10.834 -21.5061,-10.834 m 237.5708,238.627 c -7.5841,0 -14.6941,2.709 -21.5061,9.48 -41.1978,41.578 -82.7612,82.341 -124.3382,124.325 -13.9627,13.949 -13.9627,29.388 0,43.744 41.2112,41.17 82.0571,82.747 123.2683,123.918 14.3285,14.762 29.3883,14.762 43.7167,0 39.7757,-39.004 80.6212,-79.497 119.6792,-119.72 6.0943,-6.772 12.1887,-12.189 14.6942,-20.044 v -10.834 c -2.5732,-8.126 -8.5322,-13.543 -14.6942,-20.45 -40.1279,-40.087 -79.5513,-80.58 -119.6792,-120.668 -6.7715,-6.771 -13.9764,-9.48 -21.1407,-9.48 m -497.3522,15.303 c -4.6049,-1.354 -7.1781,1.355 -10.022,4.063 -41.2113,41.848 -77.398,79.227 -118.6093,120.803 -9.3446,9.481 -9.3446,23.159 0,32.504 22.2241,22.617 44.8001,44.827 67.0107,67.444 19.3529,19.367 33.6814,33.993 53.7519,53.766 5.6882,5.417 10.6992,4.063 13.6107,-2.709 2.167,-4.063 2.167,-8.126 2.167,-12.189 0,-42.254 0,-75.299 0,-117.553 0,-42.66 0,-85.185 0,-127.575 0,-2.708 0,-6.771 -1.3545,-9.479 -1.3541,-4.063 -2.4375,-8.127 -6.7712,-10.835 m 261.9347,220.751 c -7.1777,0 -15.4118,2.708 -22.2241,9.479 -41.1978,41.577 -82.0568,83.967 -123.2545,125.409 -14.3423,14.355 -14.3423,29.388 0,43.744 39.7756,40.222 79.9035,79.632 120.0313,119.719 5.6879,6.772 11.7823,12.189 20.0706,14.627 h 10.022 c 7.8548,-1.354 14.3284,-6.772 20.057,-13.543 40.1413,-40.494 80.6349,-80.716 121.1148,-121.21 13.9765,-14.355 12.1889,-30.472 -1.3542,-44.692 -41.5635,-41.577 -82.0568,-82.883 -123.268,-124.46 -6.7716,-6.771 -13.9766,-9.48 -21.493,-9.48 z"
       inkscape:connector-curvature="0"
       style="stroke-width:35.83246613"
       inkscape:label="media_player.kodi_on_firetv" />
    <path
       id="switch.janis_pc_wol"
       d="m 7881.522,-9954.9467 h -466.7432 v -311.1943 h 466.7432 m 0,-51.85 h -466.7432 c -28.8162,0 -51.8495,23.131 -51.8495,51.85 v 311.1943 a 51.865808,51.865808 0 0 0 51.8495,51.9475 h 181.5221 v 51.8494 h -51.8495 v 51.8495 h 207.3979 v -51.8495 h -51.8495 v -51.8494 h 181.5222 a 51.865808,51.865808 0 0 0 51.9475,-51.9475 v -311.1943 c 0,-28.719 -23.4255,-51.85 -51.9475,-51.85 z"
       inkscape:connector-curvature="0"
       style="stroke-width:25.93290138"
       inkscape:label="switch.janis_pc_wol" />
    <g
       id="sensor.balcony_door_open"
       transform="matrix(11.725867,0,0,11.725867,4415.451,-7193.1352)"
       inkscape:label="sensor.balcony_door_open">
      <rect
         id="rect4530"
         height="13.968"
         width="3.1500001"
         y="81.028999"
         x="7.5079999" />
      <rect
         id="rect4532"
         height="13.968"
         width="3.1500001"
         y="81.028999"
         x="89.342003" />
      <rect
         id="rect4534"
         height="75.047997"
         width="3.1500001"
         y="5.9790001"
         x="86.191002" />
      <rect
         id="rect4536"
         height="0.99000001"
         width="1.979"
         y="81.028"
         x="84.211998" />
      <rect
         id="rect4538"
         height="0.99000001"
         width="3.767"
         y="81.029999"
         x="23.938" />
      <rect
         id="rect4540"
         height="0.99000001"
         width="3.767"
         y="81.029999"
         x="16.405001" />
      <rect
         id="rect4542"
         height="0.99000001"
         width="3.767"
         y="81.028999"
         x="61.609001" />
      <rect
         id="rect4544"
         height="0.99000001"
         width="3.767"
         y="81.028999"
         x="54.075001" />
      <rect
         id="rect4546"
         height="0.99000001"
         width="3.767"
         y="81.028999"
         x="46.541" />
      <rect
         id="rect4548"
         height="0.99000001"
         width="3.767"
         y="81.028999"
         x="39.007" />
      <rect
         id="rect4550"
         height="0.99000001"
         width="3.7679999"
         y="81.028999"
         x="31.473" />
      <rect
         id="rect4552-4"
         height="0.99000001"
         width="3.7679999"
         y="81.028"
         x="76.676003" />
      <rect
         id="rect4554-7"
         height="0.99000001"
         width="3.7679999"
         y="81.028"
         x="69.142998" />
      <rect
         id="rect4556"
         height="0.99000001"
         width="1.98"
         y="81.029999"
         x="10.658" />
      <rect
         id="rect4558"
         height="0.991"
         width="1.98"
         y="94.008003"
         x="87.361" />
      <rect
         id="rect4560"
         height="0.99000001"
         width="3.934"
         y="94.010002"
         x="24.437" />
      <rect
         id="rect4562"
         height="0.99000001"
         width="3.9330001"
         y="94.010002"
         x="16.570999" />
      <rect
         id="rect4564"
         height="0.991"
         width="3.9330001"
         y="94.008003"
         x="63.764999" />
      <rect
         id="rect4566"
         height="0.991"
         width="3.9330001"
         y="94.009003"
         x="55.898998" />
      <rect
         id="rect4568"
         height="0.991"
         width="3.934"
         y="94.009003"
         x="48.033001" />
      <rect
         id="rect4570"
         height="0.991"
         width="3.9330001"
         y="94.009003"
         x="40.167999" />
      <rect
         id="rect4572"
         height="0.991"
         width="3.9330001"
         y="94.009003"
         x="32.303001" />
      <rect
         id="rect4574"
         height="0.991"
         width="3.9330001"
         y="94.008003"
         x="79.496002" />
      <rect
         id="rect4576"
         height="0.991"
         width="3.9330001"
         y="94.008003"
         x="71.630997" />
      <rect
         id="rect4578"
         height="0.99000001"
         width="1.98"
         y="94.010002"
         x="10.658" />
      <path
         id="path4580"
         d="m 11.006,77.223 -0.989,-0.051 c 0.067,-1.323 0.168,-2.661 0.302,-3.972 l 0.985,0.1 c -0.132,1.296 -0.232,2.614 -0.298,3.923 z"
         inkscape:connector-curvature="0" />
      <path
         id="path4582"
         d="m 11.807,69.401 -0.979,-0.153 c 0.204,-1.309 0.444,-2.627 0.716,-3.919 l 0.969,0.203 c -0.268,1.276 -0.506,2.576 -0.706,3.869 z"
         inkscape:connector-curvature="0" />
      <path
         id="path4584"
         d="M 13.422,61.706 12.465,61.45 c 0.341,-1.279 0.719,-2.565 1.125,-3.82 l 0.942,0.303 c -0.401,1.239 -0.774,2.508 -1.11,3.773 z"
         inkscape:connector-curvature="0" />
      <path
         id="path4586"
         d="m 15.84,54.225 -0.924,-0.354 c 0.468,-1.227 0.979,-2.463 1.518,-3.676 l 0.905,0.401 c -0.532,1.199 -1.036,2.419 -1.499,3.629 z"
         inkscape:connector-curvature="0" />
      <path
         id="path4588"
         d="m 19.025,47.051 -0.883,-0.449 c 0.6,-1.177 1.238,-2.354 1.897,-3.499 l 0.858,0.495 c -0.65,1.13 -1.281,2.292 -1.872,3.453 z"
         inkscape:connector-curvature="0" />
      <path
         id="path4590"
         d="m 22.949,40.248 -0.831,-0.539 c 0.72,-1.109 1.478,-2.213 2.253,-3.283 l 0.802,0.581 c -0.766,1.056 -1.514,2.146 -2.224,3.241 z"
         inkscape:connector-curvature="0" />
      <path
         id="path4592"
         d="m 27.564,33.888 -0.77,-0.623 c 0.83,-1.027 1.7,-2.047 2.584,-3.032 l 0.737,0.662 c -0.873,0.972 -1.731,1.979 -2.551,2.993 z"
         inkscape:connector-curvature="0" />
      <path
         id="path4594"
         d="m 32.82,28.038 -0.701,-0.699 c 0.935,-0.938 1.907,-1.863 2.886,-2.748 l 0.663,0.735 c -0.966,0.873 -1.924,1.786 -2.848,2.712 z"
         inkscape:connector-curvature="0" />
      <path
         id="path4596"
         d="m 38.657,22.766 -0.625,-0.769 c 1.027,-0.834 2.09,-1.652 3.158,-2.432 l 0.584,0.799 c -1.055,0.77 -2.104,1.578 -3.117,2.402 z"
         inkscape:connector-curvature="0" />
      <path
         id="path4598"
         d="m 45.013,18.128 -0.541,-0.83 c 1.11,-0.724 2.253,-1.427 3.397,-2.091 l 0.498,0.857 c -1.13,0.655 -2.257,1.35 -3.354,2.064 z"
         inkscape:connector-curvature="0" />
      <path
         id="path4600"
         d="m 51.824,14.18 -0.45,-0.882 c 1.182,-0.605 2.394,-1.184 3.601,-1.723 l 0.403,0.904 c -1.191,0.532 -2.386,1.104 -3.554,1.701 z"
         inkscape:connector-curvature="0" />
      <path
         id="path4602"
         d="m 59.017,10.967 -0.356,-0.924 c 1.245,-0.478 2.513,-0.927 3.767,-1.334 l 0.305,0.941 c -1.239,0.403 -2.489,0.846 -3.716,1.317 z"
         inkscape:connector-curvature="0" />
      <path
         id="path4604"
         d="M 66.502,8.534 66.247,7.577 C 67.52,7.235 68.823,6.923 70.123,6.648 l 0.204,0.969 c -1.28,0.272 -2.568,0.58 -3.825,0.917 z"
         inkscape:connector-curvature="0" />
      <path
         id="path4606"
         d="M 74.193,6.905 74.042,5.927 c 1.307,-0.206 2.636,-0.379 3.951,-0.515 l 0.102,0.984 c -1.298,0.135 -2.61,0.306 -3.902,0.509 z"
         inkscape:connector-curvature="0" />
      <path
         id="path4608"
         d="M 82.016,6.091 81.966,5.102 C 83.287,5.034 84.627,5 85.947,5 v 0.99 c -1.302,0 -2.625,0.034 -3.931,0.101 z"
         inkscape:connector-curvature="0" />
    </g>
    <g
       id="sensor.balcony_door_closed"
       transform="matrix(11.76692,0,0,11.76692,4411.6539,-7196.4617)"
       inkscape:label="sensor.balcony_door_closed">
      <rect
         id="rect2"
         height="13.968"
         width="3.1500001"
         y="81.028999"
         x="7.5079999" />
      <rect
         id="rect4"
         height="13.968"
         width="3.1500001"
         y="81.028999"
         x="89.342003" />
      <rect
         id="rect6"
         height="3.1500015"
         width="78.683998"
         y="81.028999"
         x="10.658" />
      <rect
         id="rect30"
         height="0.991"
         width="1.98"
         y="94.008003"
         x="87.361" />
      <rect
         id="rect32"
         height="0.99000001"
         width="3.934"
         y="94.010002"
         x="24.437" />
      <rect
         id="rect34"
         height="0.99000001"
         width="3.9330001"
         y="94.010002"
         x="16.570999" />
      <rect
         id="rect36"
         height="0.991"
         width="3.9330001"
         y="94.008003"
         x="63.764999" />
      <rect
         id="rect38"
         height="0.991"
         width="3.9330001"
         y="94.009003"
         x="55.898998" />
      <rect
         id="rect40"
         height="0.991"
         width="3.934"
         y="94.009003"
         x="48.033001" />
      <rect
         id="rect42"
         height="0.991"
         width="3.9330001"
         y="94.009003"
         x="40.167999" />
      <rect
         id="rect44"
         height="0.991"
         width="3.9330001"
         y="94.009003"
         x="32.303001" />
      <rect
         id="rect46"
         height="0.991"
         width="3.9330001"
         y="94.008003"
         x="79.496002" />
      <rect
         id="rect48"
         height="0.991"
         width="3.9330001"
         y="94.008003"
         x="71.630997" />
      <rect
         id="rect50"
         height="0.99000001"
         width="1.98"
         y="94.010002"
         x="10.658" />
    </g>
    <g
       id="sensor.entrance_door_closed"
       transform="matrix(-11.647664,2.1125664e-5,-2.1125664e-5,-11.647664,7704.1424,-11599.202)"
       inkscape:label="sensor.entrance_door_closed">
      <rect
         id="rect2-4"
         height="13.968"
         width="3.1500001"
         y="81.028999"
         x="7.5079999" />
      <rect
         id="rect4-6"
         height="13.968"
         width="3.1500001"
         y="81.028999"
         x="89.342003" />
      <rect
         id="rect6-3"
         height="3.1500015"
         width="78.683998"
         y="81.028999"
         x="10.658" />
      <rect
         id="rect30-7"
         height="0.991"
         width="1.98"
         y="94.008003"
         x="87.361" />
      <rect
         id="rect32-1"
         height="0.99000001"
         width="3.934"
         y="94.010002"
         x="24.437" />
      <rect
         id="rect34-3"
         height="0.99000001"
         width="3.9330001"
         y="94.010002"
         x="16.570999" />
      <rect
         id="rect36-2"
         height="0.991"
         width="3.9330001"
         y="94.008003"
         x="63.764999" />
      <rect
         id="rect38-4"
         height="0.991"
         width="3.9330001"
         y="94.009003"
         x="55.898998" />
      <rect
         id="rect40-5"
         height="0.991"
         width="3.934"
         y="94.009003"
         x="48.033001" />
      <rect
         id="rect42-8"
         height="0.991"
         width="3.9330001"
         y="94.009003"
         x="40.167999" />
      <rect
         id="rect44-2"
         height="0.991"
         width="3.9330001"
         y="94.009003"
         x="32.303001" />
      <rect
         id="rect46-0"
         height="0.991"
         width="3.9330001"
         y="94.008003"
         x="79.496002" />
      <rect
         id="rect48-2"
         height="0.991"
         width="3.9330001"
         y="94.008003"
         x="71.630997" />
      <rect
         id="rect50-2"
         height="0.99000001"
         width="1.98"
         y="94.010002"
         x="10.658" />
    </g>
    <g
       id="sensor.entrance_door_open"
       transform="matrix(-11.649363,-0.01607185,0.01607185,-11.649363,7702.6479,-11597.672)"
       inkscape:label="sensor.entrance_door_open">
      <rect
         id="rect4728"
         height="13.968"
         width="3.1500001"
         y="81.028999"
         x="7.5079999" />
      <rect
         id="rect4730"
         height="13.968"
         width="3.1500001"
         y="81.028999"
         x="89.342003" />
      <rect
         id="rect4732"
         height="75.047997"
         width="3.1500001"
         y="5.9790001"
         x="86.191002" />
      <rect
         id="rect4734"
         height="0.99000001"
         width="1.979"
         y="81.028"
         x="84.211998" />
      <rect
         id="rect4736"
         height="0.99000001"
         width="3.767"
         y="81.029999"
         x="23.938" />
      <rect
         id="rect4738"
         height="0.99000001"
         width="3.767"
         y="81.029999"
         x="16.405001" />
      <rect
         id="rect4740"
         height="0.99000001"
         width="3.767"
         y="81.028999"
         x="61.609001" />
      <rect
         id="rect4742"
         height="0.99000001"
         width="3.767"
         y="81.028999"
         x="54.075001" />
      <rect
         id="rect4744"
         height="0.99000001"
         width="3.767"
         y="81.028999"
         x="46.541" />
      <rect
         id="rect4746"
         height="0.99000001"
         width="3.767"
         y="81.028999"
         x="39.007" />
      <rect
         id="rect4748"
         height="0.99000001"
         width="3.7679999"
         y="81.028999"
         x="31.473" />
      <rect
         id="rect4750"
         height="0.99000001"
         width="3.7679999"
         y="81.028"
         x="76.676003" />
      <rect
         id="rect4752"
         height="0.99000001"
         width="3.7679999"
         y="81.028"
         x="69.142998" />
      <rect
         id="rect4754"
         height="0.99000001"
         width="1.98"
         y="81.029999"
         x="10.658" />
      <rect
         id="rect4756"
         height="0.991"
         width="1.98"
         y="94.008003"
         x="87.361" />
      <rect
         id="rect4758"
         height="0.99000001"
         width="3.934"
         y="94.010002"
         x="24.437" />
      <rect
         id="rect4760"
         height="0.99000001"
         width="3.9330001"
         y="94.010002"
         x="16.570999" />
      <rect
         id="rect4762"
         height="0.991"
         width="3.9330001"
         y="94.008003"
         x="63.764999" />
      <rect
         id="rect4764"
         height="0.991"
         width="3.9330001"
         y="94.009003"
         x="55.898998" />
      <rect
         id="rect4766"
         height="0.991"
         width="3.934"
         y="94.009003"
         x="48.033001" />
      <rect
         id="rect4768"
         height="0.991"
         width="3.9330001"
         y="94.009003"
         x="40.167999" />
      <rect
         id="rect4770"
         height="0.991"
         width="3.9330001"
         y="94.009003"
         x="32.303001" />
      <rect
         id="rect4772"
         height="0.991"
         width="3.9330001"
         y="94.008003"
         x="79.496002" />
      <rect
         id="rect4774"
         height="0.991"
         width="3.9330001"
         y="94.008003"
         x="71.630997" />
      <rect
         id="rect4776"
         height="0.99000001"
         width="1.98"
         y="94.010002"
         x="10.658" />
      <path
         id="path4778"
         d="m 11.006,77.223 -0.989,-0.051 c 0.067,-1.323 0.168,-2.661 0.302,-3.972 l 0.985,0.1 c -0.132,1.296 -0.232,2.614 -0.298,3.923 z"
         inkscape:connector-curvature="0" />
      <path
         id="path4780"
         d="m 11.807,69.401 -0.979,-0.153 c 0.204,-1.309 0.444,-2.627 0.716,-3.919 l 0.969,0.203 c -0.268,1.276 -0.506,2.576 -0.706,3.869 z"
         inkscape:connector-curvature="0" />
      <path
         id="path4782"
         d="M 13.422,61.706 12.465,61.45 c 0.341,-1.279 0.719,-2.565 1.125,-3.82 l 0.942,0.303 c -0.401,1.239 -0.774,2.508 -1.11,3.773 z"
         inkscape:connector-curvature="0" />
      <path
         id="path4784"
         d="m 15.84,54.225 -0.924,-0.354 c 0.468,-1.227 0.979,-2.463 1.518,-3.676 l 0.905,0.401 c -0.532,1.199 -1.036,2.419 -1.499,3.629 z"
         inkscape:connector-curvature="0" />
      <path
         id="path4786"
         d="m 19.025,47.051 -0.883,-0.449 c 0.6,-1.177 1.238,-2.354 1.897,-3.499 l 0.858,0.495 c -0.65,1.13 -1.281,2.292 -1.872,3.453 z"
         inkscape:connector-curvature="0" />
      <path
         id="path4788"
         d="m 22.949,40.248 -0.831,-0.539 c 0.72,-1.109 1.478,-2.213 2.253,-3.283 l 0.802,0.581 c -0.766,1.056 -1.514,2.146 -2.224,3.241 z"
         inkscape:connector-curvature="0" />
      <path
         id="path4790"
         d="m 27.564,33.888 -0.77,-0.623 c 0.83,-1.027 1.7,-2.047 2.584,-3.032 l 0.737,0.662 c -0.873,0.972 -1.731,1.979 -2.551,2.993 z"
         inkscape:connector-curvature="0" />
      <path
         id="path4792"
         d="m 32.82,28.038 -0.701,-0.699 c 0.935,-0.938 1.907,-1.863 2.886,-2.748 l 0.663,0.735 c -0.966,0.873 -1.924,1.786 -2.848,2.712 z"
         inkscape:connector-curvature="0" />
      <path
         id="path4794"
         d="m 38.657,22.766 -0.625,-0.769 c 1.027,-0.834 2.09,-1.652 3.158,-2.432 l 0.584,0.799 c -1.055,0.77 -2.104,1.578 -3.117,2.402 z"
         inkscape:connector-curvature="0" />
      <path
         id="path4796"
         d="m 45.013,18.128 -0.541,-0.83 c 1.11,-0.724 2.253,-1.427 3.397,-2.091 l 0.498,0.857 c -1.13,0.655 -2.257,1.35 -3.354,2.064 z"
         inkscape:connector-curvature="0" />
      <path
         id="path4798"
         d="m 51.824,14.18 -0.45,-0.882 c 1.182,-0.605 2.394,-1.184 3.601,-1.723 l 0.403,0.904 c -1.191,0.532 -2.386,1.104 -3.554,1.701 z"
         inkscape:connector-curvature="0" />
      <path
         id="path4800"
         d="m 59.017,10.967 -0.356,-0.924 c 1.245,-0.478 2.513,-0.927 3.767,-1.334 l 0.305,0.941 c -1.239,0.403 -2.489,0.846 -3.716,1.317 z"
         inkscape:connector-curvature="0" />
      <path
         id="path4802"
         d="M 66.502,8.534 66.247,7.577 C 67.52,7.235 68.823,6.923 70.123,6.648 l 0.204,0.969 c -1.28,0.272 -2.568,0.58 -3.825,0.917 z"
         inkscape:connector-curvature="0" />
      <path
         id="path4804"
         d="M 74.193,6.905 74.042,5.927 c 1.307,-0.206 2.636,-0.379 3.951,-0.515 l 0.102,0.984 c -1.298,0.135 -2.61,0.306 -3.902,0.509 z"
         inkscape:connector-curvature="0" />
      <path
         id="path4806"
         d="M 82.016,6.091 81.966,5.102 C 83.287,5.034 84.627,5 85.947,5 v 0.99 c -1.302,0 -2.625,0.034 -3.931,0.101 z"
         inkscape:connector-curvature="0" />
    </g>
    <path
       id="media_player.guest_room"
       d="m 7156.5937,-2562.9329 h -116.6593 v 213.8582 a 97.222224,97.222224 0 0 1 -97.2284,97.3018 97.222224,97.222224 0 0 1 -97.2137,-97.3018 97.222224,97.222224 0 0 1 97.2137,-97.1549 c 22.1649,0 42.0074,7.3491 58.3368,19.4015 v -213.8581 h 155.5509 m 116.6739,-155.5067 h -544.4493 a 77.777779,77.777779 0 0 0 -77.7827,77.7534 v 544.4198 a 77.777779,77.777779 0 0 0 77.7827,77.7533 h 544.4493 a 77.777779,77.777779 0 0 0 77.768,-77.7533 v -544.4198 a 77.777779,77.777779 0 0 0 -77.768,-77.7534 z"
       inkscape:connector-curvature="0"
       style="stroke-width:38.88889313"
       inkscape:label="media_player.guest_room" />
    <path
       id="media_player.bedroom"
       d="m 12155.551,-2575.2459 h -116.659 v 213.8583 a 97.222207,97.222207 0 0 1 -97.229,97.3018 97.222207,97.222207 0 0 1 -97.214,-97.3018 97.222207,97.222207 0 0 1 97.214,-97.1549 c 22.164,0 42.006,7.3496 58.337,19.4016 v -213.8583 h 155.551 m 116.672,-155.5066 h -544.449 a 77.777764,77.777764 0 0 0 -77.782,77.7533 v 544.42 a 77.777764,77.777764 0 0 0 77.782,77.7533 h 544.449 a 77.777764,77.777764 0 0 0 77.769,-77.7533 v -544.42 a 77.777764,77.777764 0 0 0 -77.769,-77.7533 z"
       inkscape:connector-curvature="0"
       style="stroke-width:38.8888855"
       inkscape:label="media_player.bedroom" />
    <path
       id="media_player.kitchen"
       d="m 10983.328,-12269.739 h -116.659 v 213.858 a 97.222207,97.222207 0 0 1 -97.229,97.302 97.222207,97.222207 0 0 1 -97.214,-97.302 97.222207,97.222207 0 0 1 97.214,-97.154 c 22.164,0 42.006,7.349 58.337,19.401 v -213.858 h 155.551 m 116.672,-155.507 h -544.449 a 77.777764,77.777764 0 0 0 -77.782,77.754 v 544.42 a 77.777764,77.777764 0 0 0 77.782,77.753 H 11100 a 77.777764,77.777764 0 0 0 77.769,-77.753 v -544.42 a 77.777764,77.777764 0 0 0 -77.769,-77.754 z"
       inkscape:connector-curvature="0"
       style="stroke-width:38.8888855"
       inkscape:label="media_player.kitchen" />
    <g
       id="media_player.txnr414"
       transform="matrix(0.03219223,-10.215808,10.215808,0.03219223,2814.9325,-9312.5055)"
       inkscape:label="media_player.txnr414">
      <path
         style="fill:#000000;fill-opacity:1;fill-rule:nonzero;stroke:none"
         id="path2645"
         d="M 31.145,0.9225 H 41.28125 L 54.805,12.90625 v -6.4525 c 0,-1.01875 -0.825,-1.845 -1.84375,-1.845 H 50.5025 V 0.9225 H 63.40375 V 4.60875 H 60.95 c -1.01875,0 -1.84375,0.82625 -1.84375,1.845 v 14.7475 H 55.11 L 40.36375,8.2975 v 7.36625 c 0,1.01875 0.825,1.83625 1.84375,1.83625 h 2.76375 v 3.70125 H 31.145 v -3.685 h 2.76125 c 1.01875,0 1.84375,-0.8275 1.84375,-1.84375 l 0.0025,-9.21875 c 0,-1.01875 -0.82375,-1.845 -1.84125,-1.845 H 31.145 V 0.9225"
         inkscape:connector-curvature="0" />
      <path
         style="fill:#000000;fill-opacity:1;fill-rule:nonzero;stroke:none"
         id="path2647"
         d="m 75.0825,10.14125 v -3.6875 c 0,-1.01875 0.82625,-1.845 1.84375,-1.845 h 1.5975 V 0.9225 h -14.195 V 4.60875 H 66.48 c 1.0175,0 1.8425,0.82625 1.8425,1.845 v 9.21875 c 0,1.01625 -0.825,1.84375 -1.8425,1.84375 h -2.15125 v 3.685 h 14.195 v -3.685 h -1.5975 c -1.0175,0 -1.84375,-0.8275 -1.84375,-1.84375 V 14.74875 L 80,11.985 l 3.315,4.3425 c 0.095,0.125 0.1525,0.28125 0.1525,0.45 0,0.4075 -0.33,0.73875 -0.7375,0.73875 h -2.1175 v 3.685 h 15.05625 v -3.685 H 94.155 c -1.19875,0 -2.2625,-0.5725 -2.93625,-1.45875 L 85.5275,8.6 91.71375,5.07125 c 0.53,-0.295 1.1375,-0.4625 1.7875,-0.4625 h 1.245 V 0.9225 H 80.6125 v 3.68625 h 1.43125 c 0.4075,0 0.7375,0.33 0.7375,0.7375 0,0.2275 -0.1,0.4275 -0.25875,0.56375 l -7.44,4.23125"
         inkscape:connector-curvature="0" />
      <path
         style="fill:#000000;fill-opacity:1;fill-rule:nonzero;stroke:none"
         id="path2649"
         d="M 126.455,4.60875 V 0.9225 h -11.4325 v 3.68625 h 1.29875 c 0.4075,0 0.73625,0.33 0.73625,0.7375 0,0.19 -0.0725,0.36375 -0.19,0.49625 l -4.29875,4.29875 -4.28,-4.27625 c -0.13125,-0.1325 -0.2125,-0.31625 -0.2125,-0.51875 0,-0.4075 0.3325,-0.7375 0.7375,-0.7375 h 2.5225 V 0.9225 H 95.9575 v 3.68625 h 0.95 c 1.0175,0 1.94,0.4125 2.6075,1.0825 l 8.13625,8.13625 0.002,1.845 c 0,1.01625 -0.825,1.84375 -1.8425,1.84375 H 103.35 v 3.685 h 15.35875 v -3.685 H 116.255 c -1.0175,0 -1.84375,-0.8275 -1.84375,-1.84375 V 13.83 l 8.1525,-8.14375 C 123.23,5.02 124.15,4.60875 125.16625,4.60875 h 1.28875"
         inkscape:connector-curvature="0" />
      <path
         style="fill:#000000;fill-opacity:1;fill-rule:nonzero;stroke:none"
         id="path2651"
         d="m 8.10125,11.0625 c 0,-4.0725 3.3,-7.375 7.3725,-7.375 4.075,0 7.375,3.3025 7.375,7.375 0,4.07125 -3.3,7.375 -7.375,7.375 -4.0725,0 -7.3725,-3.30375 -7.3725,-7.375 z M 15.47375,0 C 12.99625,0 10.58125,0.25875 8.25,0.7475 3.525,1.80375 0,6.02125 0,11.0625 c 0,5.03875 3.525,9.2525 8.245,10.3125 2.33125,0.4875 4.74875,0.74375 7.22625,0.74375 2.4775,0 4.89,-0.25875 7.22375,-0.74625 4.7225,-1.0575 8.25,-5.2725 8.25,-10.315 C 30.945,6.0175 27.42,1.80375 22.7,0.74625 20.36875,0.255 17.95125,0 15.47375,0"
         inkscape:connector-curvature="0" />
      <path
         style="fill:#000000;fill-opacity:1;fill-rule:nonzero;stroke:none"
         id="path2653"
         d="m 133.4625,11.0625 c 0,-4.0725 3.3,-7.375 7.3725,-7.375 4.0725,0 7.375,3.3025 7.375,7.375 0,4.07125 -3.3025,7.375 -7.375,7.375 -4.0725,0 -7.3725,-3.30375 -7.3725,-7.375 z M 140.835,0 c -2.4775,0 -4.8925,0.25875 -7.22375,0.7475 -4.725,1.05625 -8.25,5.27375 -8.25,10.315 0,5.03875 3.525,9.2525 8.245,10.3125 2.33125,0.4875 4.74875,0.74375 7.22375,0.74375 2.4775,0 4.8925,-0.25875 7.22625,-0.74625 4.7225,-1.0575 8.25,-5.2725 8.25,-10.315 0,-5.04 -3.525,-9.25375 -8.245,-10.31125 C 145.73,0.255 143.31375,0 140.835,0"
         inkscape:connector-curvature="0" />
      <path
         style="fill:#000000;fill-opacity:1;fill-rule:nonzero;stroke:none"
         id="path2655"
         d="m 154.65375,18.90125 c 0,-1.275 1.0325,-2.3075 2.30875,-2.3075 1.275,0 2.3075,1.0325 2.3075,2.3075 0,1.275 -1.0325,2.31 -2.3075,2.31 -1.27625,0 -2.30875,-1.035 -2.30875,-2.31 z m 2.30875,1.8875 c 1.0425,0 1.885,-0.84625 1.885,-1.8875 0,-1.04125 -0.8425,-1.885 -1.885,-1.885 -1.0425,0 -1.88625,0.84375 -1.88625,1.885 0,1.04125 0.84375,1.8875 1.88625,1.8875"
         inkscape:connector-curvature="0" />
      <path
         style="fill:#000000;fill-opacity:1;fill-rule:nonzero;stroke:none"
         id="path2657"
         d="m 155.745,17.625 h 1.4275 c 0.31,0 0.57125,0.03375 0.7675,0.15125 0.1625,0.095 0.32875,0.28625 0.33375,0.62 0.005,0.6875 -0.595,0.77375 -0.75875,0.8175 l 0.76375,0.92125 h -0.57125 l -0.7225,-0.8825 h -0.75125 V 20.135 H 155.745 Z m 0.48875,1.215 h 0.9025 c 0.4175,0 0.68375,-0.14625 0.68375,-0.39625 C 157.818,18.24 157.69125,18.145 157.57625,18.09 c -0.10375,-0.0525 -0.2175,-0.0575 -0.40875,-0.0575 h -0.93375 V 18.84"
         inkscape:connector-curvature="0" />
    </g>
    <path
       id="group.light_livingroom"
       d="m 4637.1152,-10909.049 a 299.99731,299.99731 0 0 0 -300,299.984 c 0,102.046 50.9907,191.62 128.5622,246.045 v 96.863 a 42.856759,42.856759 0 0 0 42.8595,42.924 h 257.1405 a 42.856759,42.856759 0 0 0 42.8594,-42.924 v -96.863 c 77.5715,-54.425 128.5784,-143.999 128.5784,-246.045 a 299.99731,299.99731 0 0 0 -300,-299.984 m -128.5783,814.264 a 42.856759,42.856759 0 0 0 42.8595,42.925 h 171.4215 a 42.856759,42.856759 0 0 0 42.8595,-42.925 v -42.761 h -257.1405 z"
       inkscape:connector-curvature="0"
       style="stroke-width:42.85675812"
       inkscape:label="group.light_livingroom" />
    <path
       id="input_boolean.blue_light"
       d="m 6114.2915,-11667.019 a 199.99818,199.99818 0 0 0 -199.9999,199.99 c 0,68.03 33.9938,127.747 85.7082,164.03 v 64.575 a 28.571169,28.571169 0 0 0 28.5729,28.616 h 171.427 a 28.571169,28.571169 0 0 0 28.573,-28.616 v -64.575 c 51.7142,-36.283 85.7189,-96 85.7189,-164.03 a 199.99818,199.99818 0 0 0 -200.0001,-199.99 m -85.7188,542.844 a 28.571169,28.571169 0 0 0 28.573,28.616 h 114.281 a 28.571169,28.571169 0 0 0 28.573,-28.616 v -28.509 h -171.427 z"
       inkscape:connector-curvature="0"
       style="stroke-width:28.57116699"
       inkscape:label="input_boolean.blue_light" />
    <path
       id="input_boolean.led_strip"
       d="m 4614.2916,-12467.019 a 199.99818,199.99818 0 0 0 -199.9999,199.99 c 0,68.03 33.9938,127.747 85.7082,164.03 v 64.575 a 28.571169,28.571169 0 0 0 28.5729,28.616 h 171.427 a 28.571169,28.571169 0 0 0 28.573,-28.616 v -64.575 c 51.7142,-36.283 85.7189,-96 85.7189,-164.03 a 199.99818,199.99818 0 0 0 -200.0001,-199.99 m -85.7188,542.844 a 28.571169,28.571169 0 0 0 28.573,28.616 h 114.281 a 28.571169,28.571169 0 0 0 28.573,-28.616 v -28.509 h -171.427 z"
       inkscape:connector-curvature="0"
       style="stroke-width:28.57117081"
       inkscape:label="input_boolean.led_strip" />
    <path
       id="input_boolean.shelf_light"
       d="m 2914.2916,-9167.0187 a 199.99818,199.99818 0 0 0 -199.9999,199.9893 c 0,68.0307 33.9938,127.7468 85.7082,164.0302 v 64.5751 a 28.571169,28.571169 0 0 0 28.5729,28.6161 h 171.427 a 28.571169,28.571169 0 0 0 28.573,-28.6161 v -64.5751 c 51.7142,-36.2834 85.7189,-95.9995 85.7189,-164.0302 a 199.99818,199.99818 0 0 0 -200.0001,-199.9893 m -85.7188,542.8435 a 28.571169,28.571169 0 0 0 28.573,28.616 h 114.281 a 28.571169,28.571169 0 0 0 28.573,-28.616 v -28.5084 h -171.427 z"
       inkscape:connector-curvature="0"
       style="stroke-width:28.57117081"
       inkscape:label="input_boolean.shelf_light" />
    <path
       id="light.gateway_light_286c07889d7e"
       d="m 6885.7186,-10045.842 a 199.99818,199.99818 0 0 0 -199.9999,199.9886 c 0,68.0307 33.9938,127.7468 85.7082,164.0302 v 64.5751 a 28.571169,28.571169 0 0 0 28.5729,28.6161 h 171.427 a 28.571169,28.571169 0 0 0 28.573,-28.6161 v -64.5751 c 51.7142,-36.2834 85.7189,-95.9995 85.7189,-164.0302 a 199.99818,199.99818 0 0 0 -200.0001,-199.9886 m -85.7188,542.8428 a 28.571169,28.571169 0 0 0 28.573,28.616 h 114.281 a 28.571169,28.571169 0 0 0 28.573,-28.616 v -28.5084 h -171.427 z"
       inkscape:connector-curvature="0"
       style="stroke-width:28.57117081"
       inkscape:label="light.gateway_light_286c07889d7e" />
    <g
       id="sensor.balcony_door_closed-1"
       transform="matrix(-9.9674862,1.378395e-5,-1.378395e-5,-9.9674862,7875.9702,-5865.956)"
       inkscape:label="sensor.balcony_door_closed">
      <rect
         id="rect2-5"
         height="13.968"
         width="3.1500001"
         y="81.028999"
         x="7.5079999" />
      <rect
         id="rect4-0"
         height="13.968"
         width="3.1500001"
         y="81.028999"
         x="89.342003" />
      <rect
         id="rect6-2"
         height="3.1500015"
         width="78.683998"
         y="81.028999"
         x="10.658" />
      <rect
         id="rect30-3"
         height="0.991"
         width="1.98"
         y="94.008003"
         x="87.361" />
      <rect
         id="rect32-9"
         height="0.99000001"
         width="3.934"
         y="94.010002"
         x="24.437" />
      <rect
         id="rect34-0"
         height="0.99000001"
         width="3.9330001"
         y="94.010002"
         x="16.570999" />
      <rect
         id="rect36-9"
         height="0.991"
         width="3.9330001"
         y="94.008003"
         x="63.764999" />
      <rect
         id="rect38-7"
         height="0.991"
         width="3.9330001"
         y="94.009003"
         x="55.898998" />
      <rect
         id="rect40-8"
         height="0.991"
         width="3.934"
         y="94.009003"
         x="48.033001" />
      <rect
         id="rect42-4"
         height="0.991"
         width="3.9330001"
         y="94.009003"
         x="40.167999" />
      <rect
         id="rect44-9"
         height="0.991"
         width="3.9330001"
         y="94.009003"
         x="32.303001" />
      <rect
         id="rect46-6"
         height="0.991"
         width="3.9330001"
         y="94.008003"
         x="79.496002" />
      <rect
         id="rect48-6"
         height="0.991"
         width="3.9330001"
         y="94.008003"
         x="71.630997" />
      <rect
         id="rect50-3"
         height="0.99000001"
         width="1.98"
         y="94.010002"
         x="10.658" />
    </g>
    <g
       id="sensor.balcony_door_closed-5"
       transform="matrix(-9.5981894,-1.2489285e-5,1.2489285e-5,-9.5981894,9896.7999,-5900.6731)"
       inkscape:label="sensor.balcony_door_closed">
      <rect
         id="rect2-6"
         height="13.968"
         width="3.1500001"
         y="81.028999"
         x="7.5079999" />
      <rect
         id="rect4-09"
         height="13.968"
         width="3.1500001"
         y="81.028999"
         x="89.342003" />
      <rect
         id="rect6-5"
         height="3.1500015"
         width="78.683998"
         y="81.028999"
         x="10.658" />
      <rect
         id="rect30-4"
         height="0.991"
         width="1.98"
         y="94.008003"
         x="87.361" />
      <rect
         id="rect32-6"
         height="0.99000001"
         width="3.934"
         y="94.010002"
         x="24.437" />
      <rect
         id="rect34-33"
         height="0.99000001"
         width="3.9330001"
         y="94.010002"
         x="16.570999" />
      <rect
         id="rect36-98"
         height="0.991"
         width="3.9330001"
         y="94.008003"
         x="63.764999" />
      <rect
         id="rect38-3"
         height="0.991"
         width="3.9330001"
         y="94.009003"
         x="55.898998" />
      <rect
         id="rect40-6"
         height="0.991"
         width="3.934"
         y="94.009003"
         x="48.033001" />
      <rect
         id="rect42-84"
         height="0.991"
         width="3.9330001"
         y="94.009003"
         x="40.167999" />
      <rect
         id="rect44-5"
         height="0.991"
         width="3.9330001"
         y="94.009003"
         x="32.303001" />
      <rect
         id="rect46-5"
         height="0.991"
         width="3.9330001"
         y="94.008003"
         x="79.496002" />
      <rect
         id="rect48-4"
         height="0.991"
         width="3.9330001"
         y="94.008003"
         x="71.630997" />
      <rect
         id="rect50-5"
         height="0.99000001"
         width="1.98"
         y="94.010002"
         x="10.658" />
    </g>
    <g
       id="sensor.balcony_door_closed-3"
       transform="matrix(7.2007883,0,0,7.2007883,11083.984,-11099.39)"
       inkscape:label="sensor.balcony_door_closed">
      <rect
         id="rect2-8"
         height="13.968"
         width="3.1500001"
         y="81.028999"
         x="7.5079999" />
      <rect
         id="rect4-8"
         height="13.968"
         width="3.1500001"
         y="81.028999"
         x="89.342003" />
      <rect
         id="rect6-35"
         height="3.1500015"
         width="78.683998"
         y="81.028999"
         x="10.658" />
      <rect
         id="rect30-34"
         height="0.991"
         width="1.98"
         y="94.008003"
         x="87.361" />
      <rect
         id="rect32-2"
         height="0.99000001"
         width="3.934"
         y="94.010002"
         x="24.437" />
      <rect
         id="rect34-9"
         height="0.99000001"
         width="3.9330001"
         y="94.010002"
         x="16.570999" />
      <rect
         id="rect36-8"
         height="0.991"
         width="3.9330001"
         y="94.008003"
         x="63.764999" />
      <rect
         id="rect38-75"
         height="0.991"
         width="3.9330001"
         y="94.009003"
         x="55.898998" />
      <rect
         id="rect40-4"
         height="0.991"
         width="3.934"
         y="94.009003"
         x="48.033001" />
      <rect
         id="rect42-0"
         height="0.991"
         width="3.9330001"
         y="94.009003"
         x="40.167999" />
      <rect
         id="rect44-6"
         height="0.991"
         width="3.9330001"
         y="94.009003"
         x="32.303001" />
      <rect
         id="rect46-1"
         height="0.991"
         width="3.9330001"
         y="94.008003"
         x="79.496002" />
      <rect
         id="rect48-47"
         height="0.991"
         width="3.9330001"
         y="94.008003"
         x="71.630997" />
      <rect
         id="rect50-1"
         height="0.99000001"
         width="1.98"
         y="94.010002"
         x="10.658" />
    </g>
    <g
       id="sensor.balcony_door_closed-4"
       transform="matrix(7.2954903,0,0,7.2954903,8946.1097,-10008.834)"
       inkscape:label="sensor.balcony_door_closed">
      <rect
         id="rect2-60"
         height="13.968"
         width="3.1500001"
         y="81.028999"
         x="7.5079999" />
      <rect
         id="rect4-091"
         height="13.968"
         width="3.1500001"
         y="81.028999"
         x="89.342003" />
      <rect
         id="rect6-7"
         height="3.1500015"
         width="78.683998"
         y="81.028999"
         x="10.658" />
      <rect
         id="rect30-36"
         height="0.991"
         width="1.98"
         y="94.008003"
         x="87.361" />
      <rect
         id="rect32-3"
         height="0.99000001"
         width="3.934"
         y="94.010002"
         x="24.437" />
      <rect
         id="rect34-8"
         height="0.99000001"
         width="3.9330001"
         y="94.010002"
         x="16.570999" />
      <rect
         id="rect36-3"
         height="0.991"
         width="3.9330001"
         y="94.008003"
         x="63.764999" />
      <rect
         id="rect38-72"
         height="0.991"
         width="3.9330001"
         y="94.009003"
         x="55.898998" />
      <rect
         id="rect40-7"
         height="0.991"
         width="3.934"
         y="94.009003"
         x="48.033001" />
      <rect
         id="rect42-07"
         height="0.991"
         width="3.9330001"
         y="94.009003"
         x="40.167999" />
      <rect
         id="rect44-3"
         height="0.991"
         width="3.9330001"
         y="94.009003"
         x="32.303001" />
      <rect
         id="rect46-2"
         height="0.991"
         width="3.9330001"
         y="94.008003"
         x="79.496002" />
      <rect
         id="rect48-8"
         height="0.991"
         width="3.9330001"
         y="94.008003"
         x="71.630997" />
      <rect
         id="rect50-8"
         height="0.99000001"
         width="1.98"
         y="94.010002"
         x="10.658" />
    </g>
    <g
       id="sensor.balcony_door_closed-11"
       transform="matrix(-9.6579555,1.2180728e-5,-1.2180728e-5,-9.6579555,8973.8252,-9555.0749)"
       inkscape:label="sensor.balcony_door_closed">
      <rect
         id="rect2-56"
         height="13.968"
         width="3.1500001"
         y="81.028999"
         x="7.5079999" />
      <rect
         id="rect4-3"
         height="13.968"
         width="3.1500001"
         y="81.028999"
         x="89.342003" />
      <rect
         id="rect6-36"
         height="3.1500015"
         width="78.683998"
         y="81.028999"
         x="10.658" />
      <rect
         id="rect30-1"
         height="0.991"
         width="1.98"
         y="94.008003"
         x="87.361" />
      <rect
         id="rect32-8"
         height="0.99000001"
         width="3.934"
         y="94.010002"
         x="24.437" />
      <rect
         id="rect34-30"
         height="0.99000001"
         width="3.9330001"
         y="94.010002"
         x="16.570999" />
      <rect
         id="rect36-99"
         height="0.991"
         width="3.9330001"
         y="94.008003"
         x="63.764999" />
      <rect
         id="rect38-9"
         height="0.991"
         width="3.9330001"
         y="94.009003"
         x="55.898998" />
      <rect
         id="rect40-78"
         height="0.991"
         width="3.934"
         y="94.009003"
         x="48.033001" />
      <rect
         id="rect42-1"
         height="0.991"
         width="3.9330001"
         y="94.009003"
         x="40.167999" />
      <rect
         id="rect44-0"
         height="0.991"
         width="3.9330001"
         y="94.009003"
         x="32.303001" />
      <rect
         id="rect46-06"
         height="0.991"
         width="3.9330001"
         y="94.008003"
         x="79.496002" />
      <rect
         id="rect48-22"
         height="0.991"
         width="3.9330001"
         y="94.008003"
         x="71.630997" />
      <rect
         id="rect50-23"
         height="0.99000001"
         width="1.98"
         y="94.010002"
         x="10.658" />
    </g>
    <g
       id="sensor.balcony_door_closed-7"
       transform="matrix(-0.01754265,9.7551578,-9.7551578,-0.01754265,9840.6375,-12055.548)"
       inkscape:label="sensor.balcony_door_closed">
      <rect
         id="rect2-3"
         height="13.968"
         width="3.1500001"
         y="81.028999"
         x="7.5079999" />
      <rect
         id="rect4-68"
         height="13.968"
         width="3.1500001"
         y="81.028999"
         x="89.342003" />
      <rect
         id="rect6-1"
         height="3.1500015"
         width="78.683998"
         y="81.028999"
         x="10.658" />
      <rect
         id="rect30-0"
         height="0.991"
         width="1.98"
         y="94.008003"
         x="87.361" />
      <rect
         id="rect32-4"
         height="0.99000001"
         width="3.934"
         y="94.010002"
         x="24.437" />
      <rect
         id="rect34-6"
         height="0.99000001"
         width="3.9330001"
         y="94.010002"
         x="16.570999" />
      <rect
         id="rect36-1"
         height="0.991"
         width="3.9330001"
         y="94.008003"
         x="63.764999" />
      <rect
         id="rect38-37"
         height="0.991"
         width="3.9330001"
         y="94.009003"
         x="55.898998" />
      <rect
         id="rect40-0"
         height="0.991"
         width="3.934"
         y="94.009003"
         x="48.033001" />
      <rect
         id="rect42-3"
         height="0.991"
         width="3.9330001"
         y="94.009003"
         x="40.167999" />
      <rect
         id="rect44-64"
         height="0.991"
         width="3.9330001"
         y="94.009003"
         x="32.303001" />
      <rect
         id="rect46-4"
         height="0.991"
         width="3.9330001"
         y="94.008003"
         x="79.496002" />
      <rect
         id="rect48-5"
         height="0.991"
         width="3.9330001"
         y="94.008003"
         x="71.630997" />
      <rect
         id="rect50-7"
         height="0.99000001"
         width="1.98"
         y="94.010002"
         x="10.658" />
    </g>
    <g
       id="sensor.balcony_door_closed-8"
       transform="matrix(0,9.8496862,-9.8496862,0,9845.959,-8308.6414)"
       inkscape:label="sensor.balcony_door_closed">
      <rect
         id="rect2-9"
         height="13.968"
         width="3.1500001"
         y="81.028999"
         x="7.5079999" />
      <rect
         id="rect4-31"
         height="13.968"
         width="3.1500001"
         y="81.028999"
         x="89.342003" />
      <rect
         id="rect6-0"
         height="3.1500015"
         width="78.683998"
         y="81.028999"
         x="10.658" />
      <rect
         id="rect30-6"
         height="0.991"
         width="1.98"
         y="94.008003"
         x="87.361" />
      <rect
         id="rect32-0"
         height="0.99000001"
         width="3.934"
         y="94.010002"
         x="24.437" />
      <rect
         id="rect34-5"
         height="0.99000001"
         width="3.9330001"
         y="94.010002"
         x="16.570999" />
      <rect
         id="rect36-7"
         height="0.991"
         width="3.9330001"
         y="94.008003"
         x="63.764999" />
      <rect
         id="rect38-6"
         height="0.991"
         width="3.9330001"
         y="94.009003"
         x="55.898998" />
      <rect
         id="rect40-62"
         height="0.991"
         width="3.934"
         y="94.009003"
         x="48.033001" />
      <rect
         id="rect42-2"
         height="0.991"
         width="3.9330001"
         y="94.009003"
         x="40.167999" />
      <rect
         id="rect44-98"
         height="0.991"
         width="3.9330001"
         y="94.009003"
         x="32.303001" />
      <rect
         id="rect46-8"
         height="0.991"
         width="3.9330001"
         y="94.008003"
         x="79.496002" />
      <rect
         id="rect48-7"
         height="0.991"
         width="3.9330001"
         y="94.008003"
         x="71.630997" />
      <rect
         id="rect50-6"
         height="0.99000001"
         width="1.98"
         y="94.010002"
         x="10.658" />
    </g>
    <g
       id="sensor.balcony_door_closed-8-0"
       transform="matrix(0,8.5502697,-8.5502697,0,11193.802,-7867.3311)"
       inkscape:label="sensor.balcony_door_closed">
      <rect
         id="rect2-9-5"
         height="13.968"
         width="3.1500001"
         y="81.028999"
         x="7.5079999" />
      <rect
         id="rect4-31-4"
         height="13.968"
         width="3.1500001"
         y="81.028999"
         x="89.342003" />
      <rect
         id="rect6-0-3"
         height="3.1500015"
         width="78.683998"
         y="81.028999"
         x="10.658" />
      <rect
         id="rect30-6-7"
         height="0.991"
         width="1.98"
         y="94.008003"
         x="87.361" />
      <rect
         id="rect32-0-5"
         height="0.99000001"
         width="3.934"
         y="94.010002"
         x="24.437" />
      <rect
         id="rect34-5-6"
         height="0.99000001"
         width="3.9330001"
         y="94.010002"
         x="16.570999" />
      <rect
         id="rect36-7-3"
         height="0.991"
         width="3.9330001"
         y="94.008003"
         x="63.764999" />
      <rect
         id="rect38-6-9"
         height="0.991"
         width="3.9330001"
         y="94.009003"
         x="55.898998" />
      <rect
         id="rect40-62-8"
         height="0.991"
         width="3.934"
         y="94.009003"
         x="48.033001" />
      <rect
         id="rect42-2-7"
         height="0.991"
         width="3.9330001"
         y="94.009003"
         x="40.167999" />
      <rect
         id="rect44-98-9"
         height="0.991"
         width="3.9330001"
         y="94.009003"
         x="32.303001" />
      <rect
         id="rect46-8-9"
         height="0.991"
         width="3.9330001"
         y="94.008003"
         x="79.496002" />
      <rect
         id="rect48-7-8"
         height="0.991"
         width="3.9330001"
         y="94.008003"
         x="71.630997" />
      <rect
         id="rect50-6-7"
         height="0.99000001"
         width="1.98"
         y="94.010002"
         x="10.658" />
    </g>
    <text
       xml:space="preserve"
       x="859.73407"
       y="-3274.9634"
       id="text4631"
       style="font-size:3.17499995px;stroke-width:0.26458332"><tspan
         sodipodi:role="line"
         id="tspan4629"
         x="859.73407"
         y="-3274.9634"
         style="font-size:705.55554199px;stroke-width:0.26458332">Alarm:</tspan></text>
    <text
       xml:space="preserve"
       x="3272.6382"
       y="-3263.4788"
       id="alarm_control_panel.alarm"
       inkscape:label="alarm_control_panel.alarm "
       style="font-size:3.17499995px;stroke-width:0.26458332"><tspan
         sodipodi:role="line"
         id="tspan4629-03"
         x="3272.6382"
         y="-3263.4788"
         style="font-size:705.55554199px;stroke-width:0.26458332">-----------</tspan></text>
  </g>
</svg>
