<?xml version="1.0" encoding="UTF-8" standalone="no"?>
<!-- Created with Inkscape (http://www.inkscape.org/) -->

<svg
   xmlns:osb="http://www.openswatchbook.org/uri/2009/osb"
   xmlns:dc="http://purl.org/dc/elements/1.1/"
   xmlns:cc="http://creativecommons.org/ns#"
   xmlns:rdf="http://www.w3.org/1999/02/22-rdf-syntax-ns#"
   xmlns:svg="http://www.w3.org/2000/svg"
   xmlns="http://www.w3.org/2000/svg"
   xmlns:sodipodi="http://sodipodi.sourceforge.net/DTD/sodipodi-0.dtd"
   xmlns:inkscape="http://www.inkscape.org/namespaces/inkscape"
   width="1500cm"
   height="1500cm"
   viewBox="0 0 15000 15000"
   version="1.1"
   id="svg8"
   inkscape:version="0.92.1 r15371"
   sodipodi:docname="floorplan.svg">
  <defs
     id="defs2">
    <linearGradient
       id="linearGradient4512"
       osb:paint="solid">
      <stop
         style="stop-color:#000000;stop-opacity:1;"
         offset="0"
         id="stop4510" />
    </linearGradient>
  </defs>
  <sodipodi:namedview
     id="base"
     pagecolor="#ffffff"
     bordercolor="#666666"
     borderopacity="1.0"
     inkscape:pageopacity="0.0"
     inkscape:pageshadow="2"
     inkscape:zoom="0.028284272"
     inkscape:cx="26955.825"
     inkscape:cy="34291.958"
     inkscape:document-units="mm"
     inkscape:current-layer="layer1"
     showgrid="true"
     units="cm"
     inkscape:window-width="1920"
     inkscape:window-height="1017"
     inkscape:window-x="-8"
     inkscape:window-y="-8"
     inkscape:window-maximized="1">
    <inkscape:grid
       type="xygrid"
       id="grid10"
       units="cm"
       spacingx="9.9999999"
       spacingy="9.9999999" />
  </sodipodi:namedview>
  <metadata
     id="metadata5">
    <rdf:RDF>
      <cc:Work
         rdf:about="">
        <dc:format>image/svg+xml</dc:format>
        <dc:type
           rdf:resource="http://purl.org/dc/dcmitype/StillImage" />
        <dc:title />
      </cc:Work>
    </rdf:RDF>
  </metadata>
  <g
     inkscape:label="Layer 1"
     inkscape:groupmode="layer"
     id="layer1"
     transform="translate(0,14703)">
    <path
       style="opacity:1;vector-effect:none;fill:#000000;fill-opacity:1;stroke:none;stroke-width:37.79527607;stroke-linecap:butt;stroke-linejoin:miter;stroke-miterlimit:4;stroke-dasharray:none;stroke-dashoffset:0;stroke-opacity:1;font-variant-east_asian:normal"
       d="M 8881.8887 7559.0547 L 8881.8887 7937.0078 L 8881.8906 7937.0078 L 8881.8906 32201.578 C 8881.8906 32201.578 8881.8906 32201.58 8881.8906 32201.58 L 8881.8906 32579.512 L 8881.8906 32579.531 L 24377.953 32579.531 L 24377.953 48340.158 L 24377.953 48340.16 L 47433.07 48340.16 L 47433.07 48340.158 L 47433.072 48340.158 L 47433.072 7559.0547 L 47433.068 7559.0547 L 8881.8887 7559.0547 z M 9259.8418 7937.0078 L 24377.953 7937.0078 L 24377.953 15949.605 C 24377.953 15949.605 24377.953 15949.607 24377.953 15949.607 L 24377.953 16327.557 C 24377.953 16327.557 24377.953 16327.559 24377.953 16327.559 L 24377.953 20107.061 C 24377.953 20107.061 24377.953 20107.062 24377.953 20107.062 L 24755.904 20107.062 C 24755.904 20107.062 24755.906 20107.061 24755.906 20107.061 L 24755.906 16327.559 L 33637.795 16327.559 L 33637.795 20107.092 L 33637.795 20485.043 L 33637.795 29744.885 L 24755.904 29744.885 L 24377.953 29744.885 C 24377.953 29744.885 24377.953 29744.887 24377.953 29744.887 L 24377.953 30122.838 L 24377.953 32201.578 L 9259.8418 32201.578 L 9259.8418 7937.0078 z M 24755.906 7937.0078 L 33637.795 7937.0078 L 33637.795 15949.605 L 24755.906 15949.605 L 24755.906 7937.0078 z M 34015.748 7937.0078 L 47055.117 7937.0078 L 47055.117 15949.605 L 34015.748 15949.605 L 34015.748 7937.0078 z M 34015.748 16327.559 L 47055.117 16327.559 L 47055.117 20107.09 L 34015.748 20107.09 L 34015.748 16327.559 z M 34015.748 20485.043 L 47055.117 20485.043 L 47055.117 29744.885 L 34015.748 29744.885 L 34015.748 20485.043 z M 24755.904 30122.838 L 33637.795 30122.838 L 33637.795 47962.205 L 24755.904 47962.205 L 24755.904 32579.531 C 24755.904 32579.531 24755.906 32579.531 24755.906 32579.531 L 24755.906 32201.58 C 24755.906 32201.58 24755.904 32201.578 24755.904 32201.578 L 24755.904 30122.838 z M 34015.748 30122.838 L 47055.117 30122.838 L 47055.117 47962.205 L 34015.748 47962.205 L 34015.748 30122.838 z "
       id="rect3687"
       transform="matrix(0.26458333,0,0,0.26458333,0,-14703)" />
    <rect
       style="fill:#000000;fill-opacity:1;stroke:none;stroke-width:10.00000015;stroke-miterlimit:4;stroke-dasharray:none;stroke-opacity:1;font-variant-east_asian:normal;opacity:1;vector-effect:none;stroke-linecap:butt;stroke-linejoin:miter;stroke-dashoffset:0"
       id="rect4543"
       width="99.999924"
       height="3750.0002"
       x="10350"
       y="-10483"
       ry="0.00020003637" />
    <path
       style="opacity:1;vector-effect:none;fill:none;fill-opacity:1;stroke:#9b9b9b;stroke-width:37.79527664;stroke-linecap:butt;stroke-linejoin:miter;stroke-miterlimit:4;stroke-dasharray:none;stroke-dashoffset:0;stroke-opacity:1"
       d="M 8881.8906 32579.529 L 8881.8906 40138.584 L 8881.8906 40516.537 L 8881.8906 40516.539 L 24377.953 40516.539 L 24377.953 40138.584 L 9259.8418 40138.584 L 9259.8418 32579.529 L 8881.8906 32579.529 z "
       transform="matrix(0.26458333,0,0,0.26458333,0,-14703)"
       id="rect4545" />
    <rect
       style="opacity:1;vector-effect:none;fill:#ff0000;fill-opacity:1;stroke:none;stroke-width:10;stroke-linecap:butt;stroke-linejoin:miter;stroke-miterlimit:4;stroke-dasharray:none;stroke-dashoffset:0;stroke-opacity:1;font-variant-east_asian:normal"
       id="rect4552"
       width="2050"
       height="100.00022"
       x="2450"
       y="-6182.9995"
       ry="0.00020003637" />
    <rect
       style="opacity:1;vector-effect:none;fill:#ff0000;fill-opacity:1;stroke:none;stroke-width:10;stroke-linecap:butt;stroke-linejoin:miter;stroke-miterlimit:4;stroke-dasharray:none;stroke-dashoffset:0;stroke-opacity:1;font-variant-east_asian:normal"
       id="rect4554"
       width="939.99994"
       height="100.00006"
       x="5500"
       y="-6183"
       ry="0.00020003637" />
    <rect
       style="fill:#ff0000;fill-opacity:1;stroke:none;stroke-width:10;stroke-miterlimit:4;stroke-dasharray:none;stroke-dashoffset:0;stroke-opacity:1;font-variant-east_asian:normal;opacity:1;vector-effect:none;stroke-linecap:butt;stroke-linejoin:miter"
       id="rect4563"
       width="100.00006"
       height="1149.9971"
       x="6450"
       y="-3262.9995"
       ry="0.00020003637" />
    <rect
       style="opacity:1;vector-effect:none;fill:#ff0000;fill-opacity:1;stroke:none;stroke-width:10;stroke-linecap:butt;stroke-linejoin:miter;stroke-miterlimit:4;stroke-dasharray:none;stroke-dashoffset:0;stroke-opacity:1;font-variant-east_asian:normal"
       id="rect4565"
       width="100.00006"
       height="590.00006"
       x="6450"
       y="-3862.9995"
       ry="0.00020003637" />
    <rect
       style="opacity:1;vector-effect:none;fill:#ff0000;fill-opacity:1;stroke:none;stroke-width:10;stroke-linecap:butt;stroke-linejoin:miter;stroke-miterlimit:4;stroke-dasharray:none;stroke-dashoffset:0;stroke-opacity:1;font-variant-east_asian:normal"
       id="rect4591"
       width="1160.0001"
       height="100.00043"
       x="11290"
       y="-2012.9995"
       ry="0.00020003637" />
    <rect
       style="opacity:1;vector-effect:none;fill:#ff0000;fill-opacity:1;stroke:none;stroke-width:10;stroke-linecap:butt;stroke-linejoin:miter;stroke-miterlimit:4;stroke-dasharray:none;stroke-dashoffset:0;stroke-opacity:1;font-variant-east_asian:normal"
       id="rect4598"
       width="590.00012"
       height="100.00052"
       x="10690"
       y="-2012.9995"
       ry="0.00020003637" />
    <rect
       style="opacity:1;vector-effect:none;fill:#ff0000;fill-opacity:1;stroke:none;stroke-width:10;stroke-linecap:butt;stroke-linejoin:miter;stroke-miterlimit:4;stroke-dasharray:none;stroke-dashoffset:0;stroke-opacity:1;font-variant-east_asian:normal"
       id="rect4600"
       width="100"
       height="1249.9999"
       x="12450"
       y="-8082.9995"
       ry="0.00020003637" />
    <rect
       style="opacity:1;vector-effect:none;fill:#ff0000;fill-opacity:1;stroke:none;stroke-width:10;stroke-linecap:butt;stroke-linejoin:miter;stroke-miterlimit:4;stroke-dasharray:none;stroke-dashoffset:0;stroke-opacity:1;font-variant-east_asian:normal"
       id="rect4602"
       width="100"
       height="1200"
       x="12450"
       y="-9282.999"
       ry="0.00020003637" />
    <rect
       style="opacity:1;vector-effect:none;fill:#ff0000;fill-opacity:1;stroke:none;stroke-width:10;stroke-linecap:butt;stroke-linejoin:miter;stroke-miterlimit:4;stroke-dasharray:none;stroke-dashoffset:0;stroke-opacity:1;font-variant-east_asian:normal"
       id="rect4604"
       width="100.00012"
       height="859.99969"
       x="12450"
       y="-11343"
       ry="0.00020003637" />
    <rect
       style="opacity:1;vector-effect:none;fill:#ff0000;fill-opacity:1;stroke:none;stroke-width:10;stroke-linecap:butt;stroke-linejoin:miter;stroke-miterlimit:4;stroke-dasharray:none;stroke-dashoffset:0;stroke-opacity:1"
       id="rect4606"
       width="100.00012"
       height="849.99969"
       x="12450"
       y="-12203"
       ry="0.00020003637" />
    <rect
       style="opacity:1;vector-effect:none;fill:#00ff00;fill-opacity:1;stroke:none;stroke-width:10;stroke-linecap:butt;stroke-linejoin:miter;stroke-miterlimit:4;stroke-dasharray:none;stroke-dashoffset:0;stroke-opacity:1;font-variant-east_asian:normal"
       id="rect4624"
       width="820.00006"
       height="99.999733"
       x="8080"
       y="-10483"
       ry="0.00020003637" />
    <rect
       style="opacity:1;vector-effect:none;fill:#00ff00;fill-opacity:1;stroke:none;stroke-width:10;stroke-linecap:butt;stroke-linejoin:miter;stroke-miterlimit:4;stroke-dasharray:none;stroke-dashoffset:0;stroke-opacity:1;font-variant-east_asian:normal"
       id="rect4640"
       width="100.00009"
       height="779.99969"
       x="8900"
       y="-11963"
       ry="0.00020003637" />
    <rect
       style="opacity:1;vector-effect:none;fill:#00ff00;fill-opacity:1;stroke:none;stroke-width:10;stroke-linecap:butt;stroke-linejoin:miter;stroke-miterlimit:4;stroke-dasharray:none;stroke-dashoffset:0;stroke-opacity:1"
       id="rect4642"
       width="610.00012"
       height="99.999733"
       x="11140"
       y="-10483"
       ry="0.00020003637" />
    <rect
       style="opacity:1;vector-effect:none;fill:#00ff00;fill-opacity:1;stroke:none;stroke-width:10;stroke-linecap:butt;stroke-linejoin:miter;stroke-miterlimit:4;stroke-dasharray:none;stroke-dashoffset:0;stroke-opacity:1;font-variant-east_asian:normal"
       id="rect4644"
       width="809.99988"
       height="100.00023"
       x="9010"
       y="-6832.9995" />
    <rect
       style="opacity:1;vector-effect:none;fill:#00ff00;fill-opacity:1;stroke:none;stroke-width:10;stroke-linecap:butt;stroke-linejoin:miter;stroke-miterlimit:4;stroke-dasharray:none;stroke-dashoffset:0;stroke-opacity:1"
       id="rect4646"
       width="100.00011"
       height="709.99976"
       x="10350"
       y="-7782.9995"
       ry="0.00020003637" />
    <rect
       style="opacity:1;vector-effect:none;fill:#00ff00;fill-opacity:1;stroke:none;stroke-width:10;stroke-linecap:butt;stroke-linejoin:miter;stroke-miterlimit:4;stroke-dasharray:none;stroke-dashoffset:0;stroke-opacity:1;font-variant-east_asian:normal"
       id="rect4650"
       width="820.00006"
       height="99.999771"
       x="6960"
       y="-6832.9995" />
    <rect
       style="opacity:1;vector-effect:none;fill:#00ff00;fill-opacity:1;stroke:none;stroke-width:10;stroke-linecap:butt;stroke-linejoin:miter;stroke-miterlimit:4;stroke-dasharray:none;stroke-dashoffset:0;stroke-opacity:1;font-variant-east_asian:normal"
       id="rect4655"
       width="100.00009"
       height="819.99976"
       x="8900"
       y="-8222.999" />
    <rect
       style="opacity:1;vector-effect:none;fill:#00ff00;fill-opacity:1;stroke:none;stroke-width:10;stroke-linecap:butt;stroke-linejoin:miter;stroke-miterlimit:4;stroke-dasharray:none;stroke-dashoffset:0;stroke-opacity:1;font-variant-east_asian:normal"
       id="rect4657"
       width="620.00085"
       height="100.00026"
       x="8999.999"
       y="-9383" />
    <path
       id="media_player.kodi_on_firetv"
       d="m 2859.4426,-11154.9 c -7.584,0 -15.4118,4.063 -22.2102,10.835 -30.4583,30.336 -60.5645,60.537 -90.657,90.602 -7.8549,8.126 -10.0216,12.189 -17.9172,19.367 -10.4281,8.126 -15.0599,18.96 -14.6942,32.232 1.3542,46.182 1.3542,91.686 1.3542,138.003 0,47.671 0,96.29 0,144.368 0,4.063 0,6.772 1.3545,9.48 2.844,10.835 10.0217,13.679 17.9173,5.417 42.9991,-43.066 81.3391,-82.07 124.3382,-125.407 48.7274,-48.755 97.8208,-97.51 146.5486,-146.671 14.6941,-14.22 14.6941,-30.336 0,-44.692 -41.2113,-41.306 -83.1271,-81.664 -123.9726,-123.241 -7.1777,-6.771 -13.9761,-10.834 -21.5061,-10.834 m 237.5708,238.627 c -7.5841,0 -14.6941,2.709 -21.5061,9.48 -41.1978,41.578 -82.7612,82.341 -124.3382,124.325 -13.9627,13.949 -13.9627,29.388 0,43.744 41.2112,41.17 82.0571,82.747 123.2683,123.918 14.3285,14.762 29.3883,14.762 43.7167,0 39.7757,-39.004 80.6212,-79.497 119.6792,-119.72 6.0943,-6.772 12.1887,-12.189 14.6942,-20.044 v -10.834 c -2.5732,-8.126 -8.5322,-13.543 -14.6942,-20.45 -40.1279,-40.087 -79.5513,-80.58 -119.6792,-120.668 -6.7715,-6.771 -13.9764,-9.48 -21.1407,-9.48 m -497.3522,15.303 c -4.6049,-1.354 -7.1781,1.355 -10.022,4.063 -41.2113,41.848 -77.398,79.227 -118.6093,120.803 -9.3446,9.481 -9.3446,23.159 0,32.504 22.2241,22.617 44.8001,44.827 67.0107,67.444 19.3529,19.367 33.6814,33.993 53.7519,53.766 5.6882,5.417 10.6992,4.063 13.6107,-2.709 2.167,-4.063 2.167,-8.126 2.167,-12.189 0,-42.254 0,-75.299 0,-117.553 0,-42.66 0,-85.185 0,-127.575 0,-2.708 0,-6.771 -1.3545,-9.479 -1.3541,-4.063 -2.4375,-8.127 -6.7712,-10.835 m 261.9347,220.751 c -7.1777,0 -15.4118,2.708 -22.2241,9.479 -41.1978,41.577 -82.0568,83.967 -123.2545,125.409 -14.3423,14.355 -14.3423,29.388 0,43.744 39.7756,40.222 79.9035,79.632 120.0313,119.719 5.6879,6.772 11.7823,12.189 20.0706,14.627 h 10.022 c 7.8548,-1.354 14.3284,-6.772 20.057,-13.543 40.1413,-40.494 80.6349,-80.716 121.1148,-121.21 13.9765,-14.355 12.1889,-30.472 -1.3542,-44.692 -41.5635,-41.577 -82.0568,-82.883 -123.268,-124.46 -6.7716,-6.771 -13.9766,-9.48 -21.493,-9.48 z"
       inkscape:connector-curvature="0"
       style="stroke-width:35.83246613"
       inkscape:label="media_player.kodi_on_firetv" />
    <path
       id="switch.janis_pc_wol"
       d="m 7685.221,-9954.9474 h -466.7432 v -311.1946 h 466.7432 m 0,-51.85 h -466.7432 c -28.8162,0 -51.8495,23.131 -51.8495,51.85 v 311.1946 a 51.865808,51.865808 0 0 0 51.8495,51.9475 h 181.5221 v 51.8494 h -51.8495 v 51.8495 h 207.3979 v -51.8495 h -51.8495 v -51.8494 h 181.5222 a 51.865808,51.865808 0 0 0 51.9475,-51.9475 v -311.1946 c 0,-28.719 -23.4255,-51.85 -51.9475,-51.85 z"
       inkscape:connector-curvature="0"
       style="stroke-width:25.93290138"
       inkscape:label="switch.janis_pc_wol" />
    <g
       id="sensor.balcony_door_open"
       transform="matrix(11.725867,0,0,11.725867,4415.451,-7193.1352)"
       inkscape:label="sensor.balcony_door_open">
      <rect
         id="rect4530"
         height="13.968"
         width="3.1500001"
         y="81.028999"
         x="7.5079999" />
      <rect
         id="rect4532"
         height="13.968"
         width="3.1500001"
         y="81.028999"
         x="89.342003" />
      <rect
         id="rect4534"
         height="75.047997"
         width="3.1500001"
         y="5.9790001"
         x="86.191002" />
      <rect
         id="rect4536"
         height="0.99000001"
         width="1.979"
         y="81.028"
         x="84.211998" />
      <rect
         id="rect4538"
         height="0.99000001"
         width="3.767"
         y="81.029999"
         x="23.938" />
      <rect
         id="rect4540"
         height="0.99000001"
         width="3.767"
         y="81.029999"
         x="16.405001" />
      <rect
         id="rect4542"
         height="0.99000001"
         width="3.767"
         y="81.028999"
         x="61.609001" />
      <rect
         id="rect4544"
         height="0.99000001"
         width="3.767"
         y="81.028999"
         x="54.075001" />
      <rect
         id="rect4546"
         height="0.99000001"
         width="3.767"
         y="81.028999"
         x="46.541" />
      <rect
         id="rect4548"
         height="0.99000001"
         width="3.767"
         y="81.028999"
         x="39.007" />
      <rect
         id="rect4550"
         height="0.99000001"
         width="3.7679999"
         y="81.028999"
         x="31.473" />
      <rect
         id="rect4552-4"
         height="0.99000001"
         width="3.7679999"
         y="81.028"
         x="76.676003" />
      <rect
         id="rect4554-7"
         height="0.99000001"
         width="3.7679999"
         y="81.028"
         x="69.142998" />
      <rect
         id="rect4556"
         height="0.99000001"
         width="1.98"
         y="81.029999"
         x="10.658" />
      <rect
         id="rect4558"
         height="0.991"
         width="1.98"
         y="94.008003"
         x="87.361" />
      <rect
         id="rect4560"
         height="0.99000001"
         width="3.934"
         y="94.010002"
         x="24.437" />
      <rect
         id="rect4562"
         height="0.99000001"
         width="3.9330001"
         y="94.010002"
         x="16.570999" />
      <rect
         id="rect4564"
         height="0.991"
         width="3.9330001"
         y="94.008003"
         x="63.764999" />
      <rect
         id="rect4566"
         height="0.991"
         width="3.9330001"
         y="94.009003"
         x="55.898998" />
      <rect
         id="rect4568"
         height="0.991"
         width="3.934"
         y="94.009003"
         x="48.033001" />
      <rect
         id="rect4570"
         height="0.991"
         width="3.9330001"
         y="94.009003"
         x="40.167999" />
      <rect
         id="rect4572"
         height="0.991"
         width="3.9330001"
         y="94.009003"
         x="32.303001" />
      <rect
         id="rect4574"
         height="0.991"
         width="3.9330001"
         y="94.008003"
         x="79.496002" />
      <rect
         id="rect4576"
         height="0.991"
         width="3.9330001"
         y="94.008003"
         x="71.630997" />
      <rect
         id="rect4578"
         height="0.99000001"
         width="1.98"
         y="94.010002"
         x="10.658" />
      <path
         id="path4580"
         d="m 11.006,77.223 -0.989,-0.051 c 0.067,-1.323 0.168,-2.661 0.302,-3.972 l 0.985,0.1 c -0.132,1.296 -0.232,2.614 -0.298,3.923 z"
         inkscape:connector-curvature="0" />
      <path
         id="path4582"
         d="m 11.807,69.401 -0.979,-0.153 c 0.204,-1.309 0.444,-2.627 0.716,-3.919 l 0.969,0.203 c -0.268,1.276 -0.506,2.576 -0.706,3.869 z"
         inkscape:connector-curvature="0" />
      <path
         id="path4584"
         d="M 13.422,61.706 12.465,61.45 c 0.341,-1.279 0.719,-2.565 1.125,-3.82 l 0.942,0.303 c -0.401,1.239 -0.774,2.508 -1.11,3.773 z"
         inkscape:connector-curvature="0" />
      <path
         id="path4586"
         d="m 15.84,54.225 -0.924,-0.354 c 0.468,-1.227 0.979,-2.463 1.518,-3.676 l 0.905,0.401 c -0.532,1.199 -1.036,2.419 -1.499,3.629 z"
         inkscape:connector-curvature="0" />
      <path
         id="path4588"
         d="m 19.025,47.051 -0.883,-0.449 c 0.6,-1.177 1.238,-2.354 1.897,-3.499 l 0.858,0.495 c -0.65,1.13 -1.281,2.292 -1.872,3.453 z"
         inkscape:connector-curvature="0" />
      <path
         id="path4590"
         d="m 22.949,40.248 -0.831,-0.539 c 0.72,-1.109 1.478,-2.213 2.253,-3.283 l 0.802,0.581 c -0.766,1.056 -1.514,2.146 -2.224,3.241 z"
         inkscape:connector-curvature="0" />
      <path
         id="path4592"
         d="m 27.564,33.888 -0.77,-0.623 c 0.83,-1.027 1.7,-2.047 2.584,-3.032 l 0.737,0.662 c -0.873,0.972 -1.731,1.979 -2.551,2.993 z"
         inkscape:connector-curvature="0" />
      <path
         id="path4594"
         d="m 32.82,28.038 -0.701,-0.699 c 0.935,-0.938 1.907,-1.863 2.886,-2.748 l 0.663,0.735 c -0.966,0.873 -1.924,1.786 -2.848,2.712 z"
         inkscape:connector-curvature="0" />
      <path
         id="path4596"
         d="m 38.657,22.766 -0.625,-0.769 c 1.027,-0.834 2.09,-1.652 3.158,-2.432 l 0.584,0.799 c -1.055,0.77 -2.104,1.578 -3.117,2.402 z"
         inkscape:connector-curvature="0" />
      <path
         id="path4598"
         d="m 45.013,18.128 -0.541,-0.83 c 1.11,-0.724 2.253,-1.427 3.397,-2.091 l 0.498,0.857 c -1.13,0.655 -2.257,1.35 -3.354,2.064 z"
         inkscape:connector-curvature="0" />
      <path
         id="path4600"
         d="m 51.824,14.18 -0.45,-0.882 c 1.182,-0.605 2.394,-1.184 3.601,-1.723 l 0.403,0.904 c -1.191,0.532 -2.386,1.104 -3.554,1.701 z"
         inkscape:connector-curvature="0" />
      <path
         id="path4602"
         d="m 59.017,10.967 -0.356,-0.924 c 1.245,-0.478 2.513,-0.927 3.767,-1.334 l 0.305,0.941 c -1.239,0.403 -2.489,0.846 -3.716,1.317 z"
         inkscape:connector-curvature="0" />
      <path
         id="path4604"
         d="M 66.502,8.534 66.247,7.577 C 67.52,7.235 68.823,6.923 70.123,6.648 l 0.204,0.969 c -1.28,0.272 -2.568,0.58 -3.825,0.917 z"
         inkscape:connector-curvature="0" />
      <path
         id="path4606"
         d="M 74.193,6.905 74.042,5.927 c 1.307,-0.206 2.636,-0.379 3.951,-0.515 l 0.102,0.984 c -1.298,0.135 -2.61,0.306 -3.902,0.509 z"
         inkscape:connector-curvature="0" />
      <path
         id="path4608"
         d="M 82.016,6.091 81.966,5.102 C 83.287,5.034 84.627,5 85.947,5 v 0.99 c -1.302,0 -2.625,0.034 -3.931,0.101 z"
         inkscape:connector-curvature="0" />
    </g>
    <g
       id="sensor.balcony_door_closed"
       transform="matrix(11.76692,0,0,11.76692,4411.6539,-7196.4617)"
       inkscape:label="sensor.balcony_door_closed">
      <rect
         id="rect2"
         height="13.968"
         width="3.1500001"
         y="81.028999"
         x="7.5079999" />
      <rect
         id="rect4"
         height="13.968"
         width="3.1500001"
         y="81.028999"
         x="89.342003" />
      <rect
         id="rect6"
         height="3.1500015"
         width="78.683998"
         y="81.028999"
         x="10.658" />
      <rect
         id="rect30"
         height="0.991"
         width="1.98"
         y="94.008003"
         x="87.361" />
      <rect
         id="rect32"
         height="0.99000001"
         width="3.934"
         y="94.010002"
         x="24.437" />
      <rect
         id="rect34"
         height="0.99000001"
         width="3.9330001"
         y="94.010002"
         x="16.570999" />
      <rect
         id="rect36"
         height="0.991"
         width="3.9330001"
         y="94.008003"
         x="63.764999" />
      <rect
         id="rect38"
         height="0.991"
         width="3.9330001"
         y="94.009003"
         x="55.898998" />
      <rect
         id="rect40"
         height="0.991"
         width="3.934"
         y="94.009003"
         x="48.033001" />
      <rect
         id="rect42"
         height="0.991"
         width="3.9330001"
         y="94.009003"
         x="40.167999" />
      <rect
         id="rect44"
         height="0.991"
         width="3.9330001"
         y="94.009003"
         x="32.303001" />
      <rect
         id="rect46"
         height="0.991"
         width="3.9330001"
         y="94.008003"
         x="79.496002" />
      <rect
         id="rect48"
         height="0.991"
         width="3.9330001"
         y="94.008003"
         x="71.630997" />
      <rect
         id="rect50"
         height="0.99000001"
         width="1.98"
         y="94.010002"
         x="10.658" />
    </g>
    <g
       id="g4726"
       transform="matrix(-11.647664,2.1125664e-5,-2.1125664e-5,-11.647664,7704.1424,-11599.202)">
      <rect
         id="rect2-4"
         height="13.968"
         width="3.1500001"
         y="81.028999"
         x="7.5079999" />
      <rect
         id="rect4-6"
         height="13.968"
         width="3.1500001"
         y="81.028999"
         x="89.342003" />
      <rect
         id="rect6-3"
         height="3.1500015"
         width="78.683998"
         y="81.028999"
         x="10.658" />
      <rect
         id="rect30-7"
         height="0.991"
         width="1.98"
         y="94.008003"
         x="87.361" />
      <rect
         id="rect32-1"
         height="0.99000001"
         width="3.934"
         y="94.010002"
         x="24.437" />
      <rect
         id="rect34-3"
         height="0.99000001"
         width="3.9330001"
         y="94.010002"
         x="16.570999" />
      <rect
         id="rect36-2"
         height="0.991"
         width="3.9330001"
         y="94.008003"
         x="63.764999" />
      <rect
         id="rect38-4"
         height="0.991"
         width="3.9330001"
         y="94.009003"
         x="55.898998" />
      <rect
         id="rect40-5"
         height="0.991"
         width="3.934"
         y="94.009003"
         x="48.033001" />
      <rect
         id="rect42-8"
         height="0.991"
         width="3.9330001"
         y="94.009003"
         x="40.167999" />
      <rect
         id="rect44-2"
         height="0.991"
         width="3.9330001"
         y="94.009003"
         x="32.303001" />
      <rect
         id="rect46-0"
         height="0.991"
         width="3.9330001"
         y="94.008003"
         x="79.496002" />
      <rect
         id="rect48-2"
         height="0.991"
         width="3.9330001"
         y="94.008003"
         x="71.630997" />
      <rect
         id="rect50-2"
         height="0.99000001"
         width="1.98"
         y="94.010002"
         x="10.658" />
    </g>
    <g
       id="sensor.entrance_door_open"
       transform="matrix(-11.649363,-0.01607185,0.01607185,-11.649363,7702.6479,-11597.672)"
       inkscape:label="sensor.entrance_door_open">
      <rect
         id="rect4728"
         height="13.968"
         width="3.1500001"
         y="81.028999"
         x="7.5079999" />
      <rect
         id="rect4730"
         height="13.968"
         width="3.1500001"
         y="81.028999"
         x="89.342003" />
      <rect
         id="rect4732"
         height="75.047997"
         width="3.1500001"
         y="5.9790001"
         x="86.191002" />
      <rect
         id="rect4734"
         height="0.99000001"
         width="1.979"
         y="81.028"
         x="84.211998" />
      <rect
         id="rect4736"
         height="0.99000001"
         width="3.767"
         y="81.029999"
         x="23.938" />
      <rect
         id="rect4738"
         height="0.99000001"
         width="3.767"
         y="81.029999"
         x="16.405001" />
      <rect
         id="rect4740"
         height="0.99000001"
         width="3.767"
         y="81.028999"
         x="61.609001" />
      <rect
         id="rect4742"
         height="0.99000001"
         width="3.767"
         y="81.028999"
         x="54.075001" />
      <rect
         id="rect4744"
         height="0.99000001"
         width="3.767"
         y="81.028999"
         x="46.541" />
      <rect
         id="rect4746"
         height="0.99000001"
         width="3.767"
         y="81.028999"
         x="39.007" />
      <rect
         id="rect4748"
         height="0.99000001"
         width="3.7679999"
         y="81.028999"
         x="31.473" />
      <rect
         id="rect4750"
         height="0.99000001"
         width="3.7679999"
         y="81.028"
         x="76.676003" />
      <rect
         id="rect4752"
         height="0.99000001"
         width="3.7679999"
         y="81.028"
         x="69.142998" />
      <rect
         id="rect4754"
         height="0.99000001"
         width="1.98"
         y="81.029999"
         x="10.658" />
      <rect
         id="rect4756"
         height="0.991"
         width="1.98"
         y="94.008003"
         x="87.361" />
      <rect
         id="rect4758"
         height="0.99000001"
         width="3.934"
         y="94.010002"
         x="24.437" />
      <rect
         id="rect4760"
         height="0.99000001"
         width="3.9330001"
         y="94.010002"
         x="16.570999" />
      <rect
         id="rect4762"
         height="0.991"
         width="3.9330001"
         y="94.008003"
         x="63.764999" />
      <rect
         id="rect4764"
         height="0.991"
         width="3.9330001"
         y="94.009003"
         x="55.898998" />
      <rect
         id="rect4766"
         height="0.991"
         width="3.934"
         y="94.009003"
         x="48.033001" />
      <rect
         id="rect4768"
         height="0.991"
         width="3.9330001"
         y="94.009003"
         x="40.167999" />
      <rect
         id="rect4770"
         height="0.991"
         width="3.9330001"
         y="94.009003"
         x="32.303001" />
      <rect
         id="rect4772"
         height="0.991"
         width="3.9330001"
         y="94.008003"
         x="79.496002" />
      <rect
         id="rect4774"
         height="0.991"
         width="3.9330001"
         y="94.008003"
         x="71.630997" />
      <rect
         id="rect4776"
         height="0.99000001"
         width="1.98"
         y="94.010002"
         x="10.658" />
      <path
         id="path4778"
         d="m 11.006,77.223 -0.989,-0.051 c 0.067,-1.323 0.168,-2.661 0.302,-3.972 l 0.985,0.1 c -0.132,1.296 -0.232,2.614 -0.298,3.923 z"
         inkscape:connector-curvature="0" />
      <path
         id="path4780"
         d="m 11.807,69.401 -0.979,-0.153 c 0.204,-1.309 0.444,-2.627 0.716,-3.919 l 0.969,0.203 c -0.268,1.276 -0.506,2.576 -0.706,3.869 z"
         inkscape:connector-curvature="0" />
      <path
         id="path4782"
         d="M 13.422,61.706 12.465,61.45 c 0.341,-1.279 0.719,-2.565 1.125,-3.82 l 0.942,0.303 c -0.401,1.239 -0.774,2.508 -1.11,3.773 z"
         inkscape:connector-curvature="0" />
      <path
         id="path4784"
         d="m 15.84,54.225 -0.924,-0.354 c 0.468,-1.227 0.979,-2.463 1.518,-3.676 l 0.905,0.401 c -0.532,1.199 -1.036,2.419 -1.499,3.629 z"
         inkscape:connector-curvature="0" />
      <path
         id="path4786"
         d="m 19.025,47.051 -0.883,-0.449 c 0.6,-1.177 1.238,-2.354 1.897,-3.499 l 0.858,0.495 c -0.65,1.13 -1.281,2.292 -1.872,3.453 z"
         inkscape:connector-curvature="0" />
      <path
         id="path4788"
         d="m 22.949,40.248 -0.831,-0.539 c 0.72,-1.109 1.478,-2.213 2.253,-3.283 l 0.802,0.581 c -0.766,1.056 -1.514,2.146 -2.224,3.241 z"
         inkscape:connector-curvature="0" />
      <path
         id="path4790"
         d="m 27.564,33.888 -0.77,-0.623 c 0.83,-1.027 1.7,-2.047 2.584,-3.032 l 0.737,0.662 c -0.873,0.972 -1.731,1.979 -2.551,2.993 z"
         inkscape:connector-curvature="0" />
      <path
         id="path4792"
         d="m 32.82,28.038 -0.701,-0.699 c 0.935,-0.938 1.907,-1.863 2.886,-2.748 l 0.663,0.735 c -0.966,0.873 -1.924,1.786 -2.848,2.712 z"
         inkscape:connector-curvature="0" />
      <path
         id="path4794"
         d="m 38.657,22.766 -0.625,-0.769 c 1.027,-0.834 2.09,-1.652 3.158,-2.432 l 0.584,0.799 c -1.055,0.77 -2.104,1.578 -3.117,2.402 z"
         inkscape:connector-curvature="0" />
      <path
         id="path4796"
         d="m 45.013,18.128 -0.541,-0.83 c 1.11,-0.724 2.253,-1.427 3.397,-2.091 l 0.498,0.857 c -1.13,0.655 -2.257,1.35 -3.354,2.064 z"
         inkscape:connector-curvature="0" />
      <path
         id="path4798"
         d="m 51.824,14.18 -0.45,-0.882 c 1.182,-0.605 2.394,-1.184 3.601,-1.723 l 0.403,0.904 c -1.191,0.532 -2.386,1.104 -3.554,1.701 z"
         inkscape:connector-curvature="0" />
      <path
         id="path4800"
         d="m 59.017,10.967 -0.356,-0.924 c 1.245,-0.478 2.513,-0.927 3.767,-1.334 l 0.305,0.941 c -1.239,0.403 -2.489,0.846 -3.716,1.317 z"
         inkscape:connector-curvature="0" />
      <path
         id="path4802"
         d="M 66.502,8.534 66.247,7.577 C 67.52,7.235 68.823,6.923 70.123,6.648 l 0.204,0.969 c -1.28,0.272 -2.568,0.58 -3.825,0.917 z"
         inkscape:connector-curvature="0" />
      <path
         id="path4804"
         d="M 74.193,6.905 74.042,5.927 c 1.307,-0.206 2.636,-0.379 3.951,-0.515 l 0.102,0.984 c -1.298,0.135 -2.61,0.306 -3.902,0.509 z"
         inkscape:connector-curvature="0" />
      <path
         id="path4806"
         d="M 82.016,6.091 81.966,5.102 C 83.287,5.034 84.627,5 85.947,5 v 0.99 c -1.302,0 -2.625,0.034 -3.931,0.101 z"
         inkscape:connector-curvature="0" />
    </g>
  </g>
</svg>
