<?xml version="1.0" encoding="UTF-8" standalone="no"?>
<!-- Created with Inkscape (http://www.inkscape.org/) -->

<svg
   xmlns:osb="http://www.openswatchbook.org/uri/2009/osb"
   xmlns:dc="http://purl.org/dc/elements/1.1/"
   xmlns:cc="http://creativecommons.org/ns#"
   xmlns:rdf="http://www.w3.org/1999/02/22-rdf-syntax-ns#"
   xmlns:svg="http://www.w3.org/2000/svg"
   xmlns="http://www.w3.org/2000/svg"
   xmlns:sodipodi="http://sodipodi.sourceforge.net/DTD/sodipodi-0.dtd"
   xmlns:inkscape="http://www.inkscape.org/namespaces/inkscape"
   width="2626.6572"
   height="675.95453"
   viewBox="0 0 694.96977 178.8463"
   version="1.1"
   id="svg8"
   inkscape:version="0.92.1 r15371"
   sodipodi:docname="services.svg">
  <defs
     id="defs2">
    <linearGradient
       id="linearGradient4512"
       osb:paint="solid">
      <stop
         style="stop-color:#000000;stop-opacity:1;"
         offset="0"
         id="stop4510" />
    </linearGradient>
  </defs>
  <sodipodi:namedview
     id="base"
     pagecolor="#ffffff"
     bordercolor="#666666"
     borderopacity="1.0"
     inkscape:pageopacity="0.0"
     inkscape:pageshadow="2"
     inkscape:zoom="0.64"
     inkscape:cx="2189.0925"
     inkscape:cy="125.45919"
     inkscape:document-units="mm"
     inkscape:current-layer="layer1"
     showgrid="true"
     units="px"
     inkscape:window-width="1920"
     inkscape:window-height="1017"
     inkscape:window-x="-8"
     inkscape:window-y="-8"
     inkscape:window-maximized="1"
     fit-margin-top="50"
     fit-margin-left="50"
     fit-margin-right="50"
     fit-margin-bottom="50">
    <inkscape:grid
       type="xygrid"
       id="grid10"
       units="cm"
       spacingx="9.9999999"
       spacingy="9.9999999"
       originx="-355.6005"
       originy="-116.31795" />
  </sodipodi:namedview>
  <metadata
     id="metadata5">
    <rdf:RDF>
      <cc:Work
         rdf:about="">
        <dc:format>image/svg+xml</dc:format>
        <dc:type
           rdf:resource="http://purl.org/dc/dcmitype/StillImage" />
        <dc:title></dc:title>
      </cc:Work>
    </rdf:RDF>
  </metadata>
  <g
     inkscape:label="Layer 1"
     inkscape:groupmode="layer"
     id="layer1"
     transform="translate(-355.60027,-1.8361343)">
    <path
       id="switch.discordbot"
       d="m 499.99998,166.84372 -34.43298,-32.79449 4.13215,13.11286 h -84.47247 a 16.396214,16.396214 0 0 1 -16.39724,-16.3849 V 32.39372 a 16.396214,16.396214 0 0 1 16.39724,-16.384839 h 98.37604 a 16.396214,16.396214 0 0 1 16.39725,16.384839 v 134.45 M 434.41347,54.033622 c -17.57715,0 -29.90669,7.535539 -29.90669,7.535539 6.75472,-6.02344 18.56122,-9.493756 18.56122,-9.493756 l -1.11544,-1.239401 c -11.08272,0 -21.11688,7.857784 -21.11688,7.857784 -11.28102,23.548573 -10.55969,43.874712 -10.55969,43.874712 9.18148,11.87342 22.82229,11.03063 22.82229,11.03063 l 4.65767,-5.89952 c -8.19738,-1.73515 -13.38055,-9.047636 -13.38055,-9.047636 0,0 12.33201,8.378366 30.03807,8.378366 17.70852,0 30.03806,-8.378366 30.03806,-8.378366 0,0 -5.18068,7.262886 -13.37807,9.047636 l 4.65519,5.89952 c 0,0 13.64329,0.74363 22.82477,-11.03063 0,0 0.71884,-20.326139 -10.55968,-43.874712 0,0 -10.03417,-7.659498 -21.11935,-7.857784 l -1.11547,1.239401 c 0,0 11.80403,3.470316 18.55876,9.493756 0,0 -12.32954,-7.535539 -29.90669,-7.535539 m -13.57637,24.862344 c 4.26353,0 7.7388,3.743012 7.67435,8.328764 0,4.536206 -3.41082,8.328769 -7.67435,8.328769 -4.19662,0 -7.60743,-3.792563 -7.60743,-8.328769 0,-4.585752 3.34637,-8.328764 7.60743,-8.328764 m 27.35104,0 c 4.26106,0 7.67188,3.743012 7.67188,8.328764 0,4.536206 -3.41082,8.328769 -7.67188,8.328769 -4.19908,0 -7.60991,-3.792563 -7.60991,-8.328769 0,-4.585752 3.34638,-8.328764 7.60991,-8.328764 z"
       inkscape:connector-curvature="0"
       style="stroke-width:6.55848551"
       inkscape:label="switch.discordbot" />
    <path
       id="switch.telegram_bot"
       d="m 557.99904,137.25681 2.00088,-30.25639 54.94284,-49.508049 c 2.43348,-2.163121 -0.51372,-3.271694 -3.72053,-1.351934 L 543.4035,98.996923 514.07181,89.695548 c -6.29463,-1.89272 -6.36765,-6.164799 1.43305,-9.301321 L 629.7546,36.320984 c 5.22389,-2.433515 10.23152,1.351934 8.22795,9.301326 l -19.45985,91.6345 c -1.35195,6.51635 -5.29419,8.08461 -10.73169,5.08331 l -29.61561,-21.87438 -14.23864,13.78977 c -1.64936,1.62233 -3.004,3.0013 -5.93772,3.0013 z"
       inkscape:connector-curvature="0"
       style="stroke-width:7.15401649"
       inkscape:label="switch.telegram_bot" />
    <path
       id="switch.asf"
       d="m 761.34173,65.183434 c 6.59779,0 11.91968,5.321836 11.91968,11.858895 0,6.558009 -5.32189,11.879845 -11.91968,11.879845 A 11.863259,11.863259 0 0 1 749.47864,77.042329 c 0,-6.537059 5.32189,-11.858895 11.86309,-11.858895 m -95.01575,-4.75613 a 16.630737,16.630737 0 0 1 16.62973,16.615025 v 1.676169 l 35.0906,18.291189 c 2.82849,-2.158065 6.26469,-3.373288 10.03399,-3.373288 l 11.91962,-16.635975 c 0,-11.796036 9.47872,-21.392104 21.34181,-21.392104 a 21.398215,21.398215 0 0 1 21.3984,21.392104 21.398215,21.398215 0 0 1 -21.3984,21.413053 L 744.712,110.27238 a 16.630737,16.630737 0 0 1 -16.6317,16.63597 c -9.09113,0 -16.62973,-7.438 -16.62973,-16.63597 0,-0.20952 0,-0.41904 0,-0.62857 L 675.41718,90.891671 c -2.60647,1.676169 -5.76608,2.723777 -9.0912,2.723777 A 16.630737,16.630737 0 0 1 649.69422,77.042329 16.630737,16.630737 0 0 1 666.32598,60.427304 m 66.68849,44.397526 c 3.54721,1.88569 4.93425,6.03421 3.10513,9.59607 -1.78092,3.47804 -6.04259,4.86088 -9.53532,3.10091 l -10.20157,-5.32184 c 0.88003,5.65706 5.8226,9.9732 11.69759,9.9732 6.59779,0 11.91962,-5.32184 11.91962,-11.85888 0,-6.53707 -5.32183,-11.858903 -11.91962,-11.858903 -1.82288,0 -3.54722,0.41904 -5.09975,1.25713 l 10.03392,5.217073 M 666.32598,65.288194 c -6.5433,0 -11.86513,5.321835 -11.86513,11.858895 0,6.55801 5.32183,11.879846 11.86513,11.879846 1.341,0 2.76993,-0.209522 3.88037,-0.628562 l -7.87169,-4.043758 c -3.54931,-1.88569 -4.93424,-6.097062 -3.16172,-9.533208 1.82282,-3.56186 6.09918,-5.007555 9.5919,-3.163769 l 9.42429,4.88184 C 677.85388,70.274799 672.64522,65.3301 666.32598,65.3301 m 95.01575,-4.75613 c -9.09107,0 -16.62973,7.417048 -16.62973,16.615024 A 16.630737,16.630737 0 0 0 761.34173,93.824968 16.630737,16.630737 0 0 0 777.97355,77.188994 16.630737,16.630737 0 0 0 761.34173,60.57397 Z"
       inkscape:connector-curvature="0"
       style="stroke-width:5.5435791"
       inkscape:label="switch.asf" />
    <g
       id="switch.mysql"
       transform="matrix(2.0546465,0,0,2.0546465,757.2676,-1969.3847)"
       inkscape:label="switch.mysql">
      <path
         id="path4499"
         overflow="visible"
         display="inline"
         visibility="visible"
         marker="none"
         d="m 49.999977,967.36216 c -17.673114,0 -32.000004,6.2681 -32.000004,14 0,7.7321 14.32689,14 32.000004,14 17.67311,0 32,-6.2679 32,-14 0,-7.7319 -14.32689,-14 -32,-14 z m -31.968754,23.75 v 8.2188 c 1.74918,2.64824 5.359,4.61584 8,5.78124 5.9952,2.5694 14.53538,4.25 23.968754,4.25 9.43336,0 17.97355,-1.6806 23.96875,-4.25 2.64895,-1.2441 6.27195,-2.9736 8.03125,-5.84383 v -8.15621 c -1.7908,1.4104 -3.98231,2.6219 -6.46875,3.6875 -6.67231,2.8596 -15.63466,4.5625 -25.53125,4.5625 -9.896604,0 -18.858944,-1.7029 -25.531254,-4.5625 -2.4774,-1.06179 -4.65036,-2.2835 -6.4375,-3.6875 z m -0.0312,13.96884 v 8.2187 c 1.74023,2.6664 5.37846,4.6419 8.03125,5.8125 5.9952,2.5694 14.53538,4.25 23.968754,4.25 9.43336,0 17.97355,-1.6806 23.96875,-4.25 2.64895,-1.2441 6.27195,-2.9736 8.03125,-5.8438 v -8.1874 c -1.79088,1.4103 -3.9821,2.653 -6.46875,3.7187 -6.67236,2.8596 -15.63466,4.5625 -25.53125,4.5625 -9.896604,0 -18.858944,-1.7029 -25.531254,-4.5625 -2.48665,-1.0657 -4.67787,-2.3083 -6.46875,-3.7187 z m 0,14 v 4.2812 c 0,7.732 14.33213,14 32.000004,14 17.66786,0 32,-6.268 32,-14 v -4.2812 c -1.79088,1.4103 -3.9821,2.653 -6.46875,3.7187 -6.67236,2.8596 -15.63466,4.5625 -25.53125,4.5625 -9.896604,0 -18.858944,-1.7029 -25.531254,-4.5625 -2.48665,-1.0657 -4.67787,-2.3083 -6.46875,-3.7187 z"
         style="color:#000000;display:inline;overflow:visible;visibility:visible;fill:#000000;stroke:none;enable-background:accumulate"
         inkscape:connector-curvature="0" />
    </g>
    <g
       id="switch.project_zomboid"
       transform="matrix(1.0209497,0,0,1.0209497,944.47387,15.065301)"
       inkscape:label="switch.project_zomboid">
      <path
         id="path4513"
         d="m 81.508,34.035 c 3.561,-0.464 6.068,-3.726 5.605,-7.286 -0.465,-3.559 -3.727,-6.068 -7.287,-5.604 l -2.609,0.34 c -0.309,5.359 -2.528,10.211 -5.984,13.891 z"
         inkscape:connector-curvature="0" />
      <path
         id="path4515"
         d="m 19.284,97.839 -18.25,36.995 c -2.442,4.954 -0.409,10.95 4.545,13.393 1.422,0.702 2.932,1.034 4.416,1.034 3.688,0 7.233,-2.047 8.976,-5.577 l 7.851,-15.914 -6.485,-7.179 7.667,-1.334 -1,-6.333 4.893,4.556 4.475,-9.07 27.173,33.779 c 1.976,2.457 4.875,3.733 7.799,3.733 2.199,0 4.414,-0.722 6.262,-2.208 4.301,-3.462 4.985,-9.757 1.523,-14.061 l -18.21,-22.633 -6.916,1.572 3.947,-5.263 -13.76,-17.105 c -0.274,-0.86 -0.667,-1.679 -1.164,-2.439 -0.182,-3.762 0.022,-7.639 0.473,-11.505 l -8.702,-7.686 9.821,0.317 c 0.879,-4.81 1.977,-9.451 2.986,-13.651 L 35.917,50.225 c -2.261,-0.199 -4.31,-1.27 -5.768,-3.009 -1.457,-1.742 -2.15,-3.946 -1.947,-6.209 0.393,-4.418 4.025,-7.75 8.451,-7.75 0.162,0 0.329,0.013 0.494,0.023 -1.358,-1.855 -2.434,-3.927 -3.167,-6.154 l -0.153,0.02 c -0.549,0.072 -1.069,0.217 -1.561,0.412 -5.89,1.556 -11.869,5.906 -14.992,13.814 -6.335,16.34 -7.811,26.938 -5.79,44.799 1.247,6.234 4.181,9.734 7.8,11.668 z"
         inkscape:connector-curvature="0" />
      <path
         id="path4517"
         d="m 39.907,33.512 27.747,2.458 c 4.63,-3.701 7.604,-9.388 7.604,-15.776 C 75.258,9.041 66.217,0 55.063,0 43.909,0 34.868,9.041 34.868,20.194 c 0,5.109 1.912,9.761 5.039,13.318 z"
         inkscape:connector-curvature="0" />
      <path
         id="path4519"
         d="m 37.24,35.282 c -3.573,-0.318 -6.728,2.325 -7.047,5.901 -0.317,3.576 2.325,6.731 5.901,7.047 l 25.778,2.286 3.796,-6.207 1.813,6.704 16.405,1.455 c 0.195,0.018 0.39,0.026 0.583,0.026 3.33,0 6.166,-2.545 6.467,-5.925 0.314,-3.576 -2.325,-6.732 -5.901,-7.05 z"
         inkscape:connector-curvature="0" />
    </g>
  </g>
</svg>
