<?xml version="1.0" encoding="UTF-8" standalone="no"?>
<!-- Created with Inkscape (http://www.inkscape.org/) -->

<svg
   xmlns:osb="http://www.openswatchbook.org/uri/2009/osb"
   xmlns:dc="http://purl.org/dc/elements/1.1/"
   xmlns:cc="http://creativecommons.org/ns#"
   xmlns:rdf="http://www.w3.org/1999/02/22-rdf-syntax-ns#"
   xmlns:svg="http://www.w3.org/2000/svg"
   xmlns="http://www.w3.org/2000/svg"
   xmlns:sodipodi="http://sodipodi.sourceforge.net/DTD/sodipodi-0.dtd"
   xmlns:inkscape="http://www.inkscape.org/namespaces/inkscape"
   width="1500cm"
   height="1500cm"
   viewBox="0 0 15000 15000"
   version="1.1"
   id="svg8"
   inkscape:version="0.92.1 r15371"
   sodipodi:docname="services.svg">
  <defs
     id="defs2">
    <linearGradient
       id="linearGradient4512"
       osb:paint="solid">
      <stop
         style="stop-color:#000000;stop-opacity:1;"
         offset="0"
         id="stop4510" />
    </linearGradient>
  </defs>
  <sodipodi:namedview
     id="base"
     pagecolor="#ffffff"
     bordercolor="#666666"
     borderopacity="1.0"
     inkscape:pageopacity="0.0"
     inkscape:pageshadow="2"
     inkscape:zoom="0.010000001"
     inkscape:cx="36290.431"
     inkscape:cy="34014.055"
     inkscape:document-units="mm"
     inkscape:current-layer="layer1"
     showgrid="true"
     units="cm"
     inkscape:window-width="1920"
     inkscape:window-height="1017"
     inkscape:window-x="-8"
     inkscape:window-y="-8"
     inkscape:window-maximized="1">
    <inkscape:grid
       type="xygrid"
       id="grid10"
       units="cm"
       spacingx="9.9999999"
       spacingy="9.9999999" />
  </sodipodi:namedview>
  <metadata
     id="metadata5">
    <rdf:RDF>
      <cc:Work
         rdf:about="">
        <dc:format>image/svg+xml</dc:format>
        <dc:type
           rdf:resource="http://purl.org/dc/dcmitype/StillImage" />
        <dc:title />
      </cc:Work>
    </rdf:RDF>
  </metadata>
  <g
     inkscape:label="Layer 1"
     inkscape:groupmode="layer"
     id="layer1"
     transform="translate(0,14703)">
    <path
       id="switch.discordbot"
       d="m 3385.0218,150.21133 -787.5163,-750.0425 94.5065,299.9039 H 760.04302 A 374.99763,374.99763 0 0 1 385.02176,-674.66577 V -2924.7933 a 374.99763,374.99763 0 0 1 375.02126,-374.7375 H 3010.0005 a 374.99763,374.99763 0 0 1 375.0213,374.7375 V 150.21133 M 1884.9934,-2429.8673 c -402.0069,0 -683.9956,172.3452 -683.9956,172.3452 154.4872,-137.762 424.5138,-217.1316 424.5138,-217.1316 L 1600,-2503 c -253.4725,0 -482.9639,179.7153 -482.9639,179.7153 -258.00787,538.5792 -241.51037,1003.4581 -241.51037,1003.4581 209.98927,271.5566 521.96847,252.2814 521.96847,252.2814 l 106.5253,-134.9279 c -187.4824,-39.6848 -306.0265,-206.9283 -306.0265,-206.9283 0,0 282.0455,191.6214 687.0004,191.6214 405.0117,0 687.0005,-191.6214 687.0005,-191.6214 0,0 -118.4876,166.1093 -305.9698,206.9283 l 106.4687,134.9279 c 0,0 312.0357,17.0077 522.025,-252.2814 0,0 16.4408,-464.8789 -241.5103,-1003.4581 0,0 -229.4914,-175.1803 -483.0206,-179.7153 l -25.5116,28.3463 c 0,0 269.9699,79.3696 424.4571,217.1316 0,0 -281.9887,-172.3452 -683.9957,-172.3452 m -310.505,568.6264 c 97.5111,0 176.994,85.6064 175.5201,190.4871 0,103.7475 -78.009,190.4872 -175.5201,190.4872 -95.9806,0 -173.9895,-86.7397 -173.9895,-190.4872 0,-104.8807 76.5349,-190.4871 173.9895,-190.4871 m 625.5455,0 c 97.4546,0 175.4635,85.6064 175.4635,190.4871 0,103.7475 -78.0089,190.4872 -175.4635,190.4872 -96.0371,0 -174.0461,-86.7397 -174.0461,-190.4872 0,-104.8807 76.5349,-190.4871 174.0461,-190.4871 z"
       inkscape:connector-curvature="0"
       style="stroke-width:149.99905396"
       inkscape:label="switch.discordbot" />
    <path
       id="switch.telegram_bot"
       d="m 7241.5438,-621.26799 46.5521,-703.94301 1278.2965,-1151.851 c 56.6174,-50.327 -11.9526,-76.119 -86.5618,-31.454 l -1577.8658,997.096 -682.4291,-216.405 c -146.4505,-44.036 -148.149,-143.43 33.3414,-216.404 l 2658.1268,-1025.405 c 121.5389,-56.618 238.0451,31.454 191.43,216.404 l -452.751,2131.96201 c -31.4541,151.609 -123.1744,188.096 -249.683,118.268 l -689.0345,-508.92801 -331.2751,320.83201 c -38.374,37.745 -69.891,69.828 -138.1465,69.828 z"
       inkscape:connector-curvature="0"
       style="stroke-width:166.44483948"
       inkscape:label="switch.telegram_bot" />
    <path
       id="switch.asf"
       d="m 13600,-2503 c 148.771,0 268.772,120 268.772,267.4016 0,147.874 -120.001,267.874 -268.772,267.874 a 267.49999,267.49999 0 0 1 -267.496,-267.874 c 0,-147.4016 120,-267.4016 267.496,-267.4016 m -2142.473,-107.2441 a 374.99999,374.99999 0 0 1 374.977,374.6457 v 37.7953 l 791.244,412.4409 c 63.779,-48.6614 141.26,-76.063 226.252,-76.063 l 268.771,-375.1181 c 0,-265.9842 213.733,-482.3622 481.229,-482.3622 a 482.5,482.5 0 0 1 482.504,482.3622 482.5,482.5 0 0 1 -482.504,482.8346 l -374.977,267.4016 A 374.99999,374.99999 0 0 1 12850,-1111.189 c -204.992,0 -374.977,-167.7165 -374.977,-375.1181 0,-4.7244 0,-9.4488 0,-14.1732 l -812.503,-422.8347 c -58.772,37.7953 -130.016,61.4174 -204.993,61.4174 a 374.99999,374.99999 0 0 1 -375.023,-373.7008 374.99999,374.99999 0 0 1 375.023,-374.6457 m 1503.733,1001.1024 c 79.984,42.5196 111.26,136.0629 70.015,216.3779 -40.157,78.4252 -136.252,109.6063 -215.007,69.9213 l -230.032,-120 c 19.843,127.559 131.291,224.8818 263.764,224.8818 148.771,0 268.771,-119.9999 268.771,-267.4015 0,-147.4016 -120,-267.4016 -268.771,-267.4016 -41.103,0 -79.984,9.4488 -114.992,28.3465 l 226.252,117.6378 m -1503.733,-893.8583 c -147.543,0 -267.543,120 -267.543,267.4016 0,147.874 120,267.874 267.543,267.874 30.237,0 62.457,-4.7244 87.497,-14.1732 l -177.497,-91.1811 c -80.031,-42.5197 -111.259,-137.4803 -71.291,-214.9606 41.102,-80.315 137.528,-112.9134 216.284,-71.3386 l 212.504,110.0787 c -7.56,-141.2598 -125.008,-252.7559 -267.497,-252.7559 M 13600,-2606.937 c -204.992,0 -374.977,167.2441 -374.977,374.6457 a 374.99999,374.99999 0 0 0 374.977,375.1181 374.99999,374.99999 0 0 0 375.024,-375.1181 A 374.99999,374.99999 0 0 0 13600,-2606.937 Z"
       inkscape:connector-curvature="0"
       style="stroke-width:124.99999237"
       inkscape:label="switch.asf" />
  </g>
</svg>
