<?xml version="1.0" encoding="UTF-8" standalone="no"?>
<!-- Created with Inkscape (http://www.inkscape.org/) -->

<svg
   xmlns:osb="http://www.openswatchbook.org/uri/2009/osb"
   xmlns:dc="http://purl.org/dc/elements/1.1/"
   xmlns:cc="http://creativecommons.org/ns#"
   xmlns:rdf="http://www.w3.org/1999/02/22-rdf-syntax-ns#"
   xmlns:svg="http://www.w3.org/2000/svg"
   xmlns="http://www.w3.org/2000/svg"
   xmlns:sodipodi="http://sodipodi.sourceforge.net/DTD/sodipodi-0.dtd"
   xmlns:inkscape="http://www.inkscape.org/namespaces/inkscape"
   width="5183.1494"
   height="1557.501"
   viewBox="0 0 1371.3751 412.0888"
   version="1.1"
   id="svg8"
   inkscape:version="0.92.1 r15371"
   sodipodi:docname="services.svg">
  <defs
     id="defs2">
    <linearGradient
       id="linearGradient4512"
       osb:paint="solid">
      <stop
         style="stop-color:#000000;stop-opacity:1;"
         offset="0"
         id="stop4510" />
    </linearGradient>
  </defs>
  <sodipodi:namedview
     id="base"
     pagecolor="#ffffff"
     bordercolor="#666666"
     borderopacity="1.0"
     inkscape:pageopacity="0.0"
     inkscape:pageshadow="2"
     inkscape:zoom="1.28"
     inkscape:cx="1196.9512"
     inkscape:cy="153.75507"
     inkscape:document-units="mm"
     inkscape:current-layer="layer1"
     showgrid="true"
     units="px"
     inkscape:window-width="1920"
     inkscape:window-height="1017"
     inkscape:window-x="-8"
     inkscape:window-y="-8"
     inkscape:window-maximized="1"
     fit-margin-top="50"
     fit-margin-left="50"
     fit-margin-right="50"
     fit-margin-bottom="50">
    <inkscape:grid
       type="xygrid"
       id="grid10"
       units="cm"
       spacingx="9.9999999"
       spacingy="9.9999999"
       originx="-338.03287"
       originy="148.85963" />
  </sodipodi:namedview>
  <metadata
     id="metadata5">
    <rdf:RDF>
      <cc:Work
         rdf:about="">
        <dc:format>image/svg+xml</dc:format>
        <dc:type
           rdf:resource="http://purl.org/dc/dcmitype/StillImage" />
        <dc:title />
      </cc:Work>
    </rdf:RDF>
  </metadata>
  <g
     inkscape:label="Layer 1"
     inkscape:groupmode="layer"
     id="layer1"
     transform="translate(-338.03235,-33.771217)">
    <path
       id="switch.discordbot"
       d="m 491.29299,193.24934 -32.86556,-31.30164 3.94405,12.51595 H 381.74432 A 15.649837,15.649837 0 0 1 366.0935,158.8246 V 64.919703 a 15.649837,15.649837 0 0 1 15.65082,-15.638979 h 93.89783 a 15.649837,15.649837 0 0 1 15.65082,15.638979 V 193.24934 M 428.69205,85.574528 c -16.777,0 -28.54529,7.192512 -28.54529,7.192512 6.44724,-5.749245 17.71629,-9.061588 17.71629,-9.061588 l -1.06466,-1.182982 c -10.57822,0 -20.15561,7.500087 -20.15561,7.500087 -10.7675,22.476583 -10.079,41.877453 -10.079,41.877453 8.76353,11.33294 21.78339,10.52851 21.78339,10.52851 l 4.44564,-5.63096 c -7.82421,-1.65617 -12.77145,-8.63579 -12.77145,-8.63579 0,0 11.77065,7.99699 28.67069,7.99699 16.90242,0 28.67069,-7.99699 28.67069,-7.99699 0,0 -4.94484,6.93228 -12.76908,8.63579 l 4.44328,5.63096 c 0,0 13.02223,0.70978 21.78576,-10.52851 0,0 0.68612,-19.40087 -10.07899,-41.877453 0,0 -9.5774,-7.310828 -20.15797,-7.500087 l -1.06469,1.182982 c 0,0 11.2667,3.312343 17.71395,9.061588 0,0 -11.76829,-7.192512 -28.54531,-7.192512 m -12.95834,23.730552 c 4.06943,0 7.3865,3.57263 7.32499,7.94963 0,4.32971 -3.25556,7.94963 -7.32499,7.94963 -4.00559,0 -7.26114,-3.61992 -7.26114,-7.94963 0,-4.377 3.19404,-7.94963 7.26114,-7.94963 m 26.10596,0 c 4.0671,0 7.32265,3.57263 7.32265,7.94963 0,4.32971 -3.25555,7.94963 -7.32265,7.94963 -4.00792,0 -7.26348,-3.61992 -7.26348,-7.94963 0,-4.377 3.19404,-7.94963 7.26348,-7.94963 z"
       inkscape:connector-curvature="0"
       style="stroke-width:6.25993443"
       inkscape:label="switch.discordbot" />
    <path
       id="switch.telegram_bot"
       d="m 607.25902,174.68343 2.20443,-33.33433 60.53209,-54.544574 c 2.68104,-2.383172 -0.56598,-3.604518 -4.09901,-1.489464 L 591.1787,132.53142 558.86314,122.28381 c -6.93497,-2.08528 -7.01542,-6.79197 1.57884,-10.24759 L 686.31416,63.479407 c 5.75531,-2.681073 11.27236,1.489464 9.06497,10.247536 L 673.93967,174.68343 c -1.48949,7.17924 -5.83276,8.90704 -11.82341,5.60043 l -32.62837,-24.09963 -15.68711,15.19258 c -1.81715,1.78737 -3.3096,3.30662 -6.54176,3.30662 z"
       inkscape:connector-curvature="0"
       style="stroke-width:7.88178444"
       inkscape:label="switch.telegram_bot" />
    <path
       id="switch.asf"
       d="m 873.17459,97.139223 c 7.04809,0 12.73326,5.685037 12.73326,12.668207 0,7.00559 -5.68517,12.69066 -12.73326,12.69066 a 12.672883,12.672883 0 0 1 -12.6727,-12.69066 c 0,-6.98317 5.6851,-12.668207 12.6727,-12.668207 M 771.67433,92.058536 a 17.76573,17.76573 0 0 1 17.76473,17.748894 v 1.79056 l 37.4854,19.53956 c 3.02154,-2.30534 6.69223,-3.60351 10.71878,-3.60351 l 12.73307,-17.77137 c 0,-12.601061 10.12558,-22.85198 22.79828,-22.85198 a 22.85857,22.85857 0 0 1 22.85884,22.85198 22.85857,22.85857 0 0 1 -22.85884,22.87447 l -17.7646,12.66823 a 17.76573,17.76573 0 0 1 -17.76675,17.77132 c -9.71164,0 -17.76472,-7.94561 -17.76472,-17.77132 0,-0.22382 0,-0.44762 0,-0.67146 L 781.38597,124.602 c -2.78428,1.79057 -6.15951,2.90967 -9.71164,2.90967 a 17.76573,17.76573 0 0 1 -17.76675,-17.70424 17.76573,17.76573 0 0 1 17.76675,-17.748894 m 71.23974,47.427514 c 3.78929,2.01438 5.27105,6.44603 3.31712,10.25097 -1.90254,3.7154 -6.45499,5.19261 -10.18615,3.31253 l -10.89772,-5.68504 c 0.94005,6.04314 6.21998,10.65384 12.49592,10.65384 7.04797,0 12.73307,-5.68504 12.73307,-12.6682 0,-6.9832 -5.6851,-12.66824 -12.73307,-12.66824 -1.94731,0 -3.7894,0.44764 -5.44784,1.34293 l 10.71867,5.57311 M 771.67433,97.251137 c -6.98985,0 -12.67485,5.685013 -12.67485,12.668203 0,7.00559 5.685,12.69065 12.67485,12.69065 1.43251,0 2.95905,-0.22382 4.14522,-0.67146 l -8.40891,-4.31975 c -3.79153,-2.01439 -5.27094,-6.51319 -3.37747,-10.18384 1.94719,-3.80495 6.51545,-5.3493 10.24651,-3.37968 l 10.06747,5.215 c -0.35818,-6.69222 -5.92225,-11.974355 -12.67282,-11.974355 m 101.50026,-5.080693 c -9.71152,0 -17.7646,7.923198 -17.7646,17.748898 a 17.76573,17.76573 0 0 0 17.7646,17.77137 17.76573,17.76573 0 0 0 17.76694,-17.77137 17.76573,17.76573 0 0 0 -17.76694,-17.748898 z"
       inkscape:connector-curvature="0"
       style="stroke-width:5.9219079"
       inkscape:label="switch.asf" />
    <g
       id="switch.mysql"
       transform="matrix(2.1268845,0,0,2.1268845,918.55867,-2010.4672)"
       inkscape:label="switch.mysql">
      <path
         id="path4499"
         overflow="visible"
         display="inline"
         visibility="visible"
         marker="none"
         d="m 49.999977,967.36216 c -17.673114,0 -32.000004,6.2681 -32.000004,14 0,7.7321 14.32689,14 32.000004,14 17.67311,0 32,-6.2679 32,-14 0,-7.7319 -14.32689,-14 -32,-14 z m -31.968754,23.75 v 8.2188 c 1.74918,2.64824 5.359,4.61584 8,5.78124 5.9952,2.5694 14.53538,4.25 23.968754,4.25 9.43336,0 17.97355,-1.6806 23.96875,-4.25 2.64895,-1.2441 6.27195,-2.9736 8.03125,-5.84383 v -8.15621 c -1.7908,1.4104 -3.98231,2.6219 -6.46875,3.6875 -6.67231,2.8596 -15.63466,4.5625 -25.53125,4.5625 -9.896604,0 -18.858944,-1.7029 -25.531254,-4.5625 -2.4774,-1.06179 -4.65036,-2.2835 -6.4375,-3.6875 z m -0.0312,13.96884 v 8.2187 c 1.74023,2.6664 5.37846,4.6419 8.03125,5.8125 5.9952,2.5694 14.53538,4.25 23.968754,4.25 9.43336,0 17.97355,-1.6806 23.96875,-4.25 2.64895,-1.2441 6.27195,-2.9736 8.03125,-5.8438 v -8.1874 c -1.79088,1.4103 -3.9821,2.653 -6.46875,3.7187 -6.67236,2.8596 -15.63466,4.5625 -25.53125,4.5625 -9.896604,0 -18.858944,-1.7029 -25.531254,-4.5625 -2.48665,-1.0657 -4.67787,-2.3083 -6.46875,-3.7187 z m 0,14 v 4.2812 c 0,7.732 14.33213,14 32.000004,14 17.66786,0 32,-6.268 32,-14 v -4.2812 c -1.79088,1.4103 -3.9821,2.653 -6.46875,3.7187 -6.67236,2.8596 -15.63466,4.5625 -25.53125,4.5625 -9.896604,0 -18.858944,-1.7029 -25.531254,-4.5625 -2.48665,-1.0657 -4.67787,-2.3083 -6.46875,-3.7187 z"
         style="color:#000000;display:inline;overflow:visible;visibility:visible;fill:#000000;stroke:none;enable-background:accumulate"
         inkscape:connector-curvature="0" />
    </g>
    <g
       id="switch.project_zomboid"
       transform="matrix(0.97107298,0,0,0.97107298,386.20915,249.51236)"
       inkscape:label="switch.project_zomboid">
      <path
         id="path4513"
         d="m 81.508,34.035 c 3.561,-0.464 6.068,-3.726 5.605,-7.286 -0.465,-3.559 -3.727,-6.068 -7.287,-5.604 l -2.609,0.34 c -0.309,5.359 -2.528,10.211 -5.984,13.891 z"
         inkscape:connector-curvature="0" />
      <path
         id="path4515"
         d="m 19.284,97.839 -18.25,36.995 c -2.442,4.954 -0.409,10.95 4.545,13.393 1.422,0.702 2.932,1.034 4.416,1.034 3.688,0 7.233,-2.047 8.976,-5.577 l 7.851,-15.914 -6.485,-7.179 7.667,-1.334 -1,-6.333 4.893,4.556 4.475,-9.07 27.173,33.779 c 1.976,2.457 4.875,3.733 7.799,3.733 2.199,0 4.414,-0.722 6.262,-2.208 4.301,-3.462 4.985,-9.757 1.523,-14.061 l -18.21,-22.633 -6.916,1.572 3.947,-5.263 -13.76,-17.105 c -0.274,-0.86 -0.667,-1.679 -1.164,-2.439 -0.182,-3.762 0.022,-7.639 0.473,-11.505 l -8.702,-7.686 9.821,0.317 c 0.879,-4.81 1.977,-9.451 2.986,-13.651 L 35.917,50.225 c -2.261,-0.199 -4.31,-1.27 -5.768,-3.009 -1.457,-1.742 -2.15,-3.946 -1.947,-6.209 0.393,-4.418 4.025,-7.75 8.451,-7.75 0.162,0 0.329,0.013 0.494,0.023 -1.358,-1.855 -2.434,-3.927 -3.167,-6.154 l -0.153,0.02 c -0.549,0.072 -1.069,0.217 -1.561,0.412 -5.89,1.556 -11.869,5.906 -14.992,13.814 -6.335,16.34 -7.811,26.938 -5.79,44.799 1.247,6.234 4.181,9.734 7.8,11.668 z"
         inkscape:connector-curvature="0" />
      <path
         id="path4517"
         d="m 39.907,33.512 27.747,2.458 c 4.63,-3.701 7.604,-9.388 7.604,-15.776 C 75.258,9.041 66.217,0 55.063,0 43.909,0 34.868,9.041 34.868,20.194 c 0,5.109 1.912,9.761 5.039,13.318 z"
         inkscape:connector-curvature="0" />
      <path
         id="path4519"
         d="m 37.24,35.282 c -3.573,-0.318 -6.728,2.325 -7.047,5.901 -0.317,3.576 2.325,6.731 5.901,7.047 l 25.778,2.286 3.796,-6.207 1.813,6.704 16.405,1.455 c 0.195,0.018 0.39,0.026 0.583,0.026 3.33,0 6.166,-2.545 6.467,-5.925 0.314,-3.576 -2.325,-6.732 -5.901,-7.05 z"
         inkscape:connector-curvature="0" />
    </g>
    <g
       id="switch.sdtd"
       transform="matrix(0.97107298,0,0,0.97107298,583.7259,251.05315)"
       inkscape:label="switch.sdtd">
      <path
         id="path4513-5"
         d="m 81.508,34.035 c 3.561,-0.464 6.068,-3.726 5.605,-7.286 -0.465,-3.559 -3.727,-6.068 -7.287,-5.604 l -2.609,0.34 c -0.309,5.359 -2.528,10.211 -5.984,13.891 z"
         inkscape:connector-curvature="0" />
      <path
         id="path4515-9"
         d="m 19.284,97.839 -18.25,36.995 c -2.442,4.954 -0.409,10.95 4.545,13.393 1.422,0.702 2.932,1.034 4.416,1.034 3.688,0 7.233,-2.047 8.976,-5.577 l 7.851,-15.914 -6.485,-7.179 7.667,-1.334 -1,-6.333 4.893,4.556 4.475,-9.07 27.173,33.779 c 1.976,2.457 4.875,3.733 7.799,3.733 2.199,0 4.414,-0.722 6.262,-2.208 4.301,-3.462 4.985,-9.757 1.523,-14.061 l -18.21,-22.633 -6.916,1.572 3.947,-5.263 -13.76,-17.105 c -0.274,-0.86 -0.667,-1.679 -1.164,-2.439 -0.182,-3.762 0.022,-7.639 0.473,-11.505 l -8.702,-7.686 9.821,0.317 c 0.879,-4.81 1.977,-9.451 2.986,-13.651 L 35.917,50.225 c -2.261,-0.199 -4.31,-1.27 -5.768,-3.009 -1.457,-1.742 -2.15,-3.946 -1.947,-6.209 0.393,-4.418 4.025,-7.75 8.451,-7.75 0.162,0 0.329,0.013 0.494,0.023 -1.358,-1.855 -2.434,-3.927 -3.167,-6.154 l -0.153,0.02 c -0.549,0.072 -1.069,0.217 -1.561,0.412 -5.89,1.556 -11.869,5.906 -14.992,13.814 -6.335,16.34 -7.811,26.938 -5.79,44.799 1.247,6.234 4.181,9.734 7.8,11.668 z"
         inkscape:connector-curvature="0" />
      <path
         id="path4517-5"
         d="m 39.907,33.512 27.747,2.458 c 4.63,-3.701 7.604,-9.388 7.604,-15.776 C 75.258,9.041 66.217,0 55.063,0 43.909,0 34.868,9.041 34.868,20.194 c 0,5.109 1.912,9.761 5.039,13.318 z"
         inkscape:connector-curvature="0" />
      <path
         id="path4519-7"
         d="m 37.24,35.282 c -3.573,-0.318 -6.728,2.325 -7.047,5.901 -0.317,3.576 2.325,6.731 5.901,7.047 l 25.778,2.286 3.796,-6.207 1.813,6.704 16.405,1.455 c 0.195,0.018 0.39,0.026 0.583,0.026 3.33,0 6.166,-2.545 6.467,-5.925 0.314,-3.576 -2.325,-6.732 -5.901,-7.05 z"
         inkscape:connector-curvature="0" />
    </g>
    <g
       id="switch.transmission_service"
       transform="matrix(1.6458281,0,0,1.6458281,1138.2323,41.073754)"
       inkscape:label="switch.transmission_service">
      <g
         id="g4579">
        <path
           id="path4563"
           d="M 78.9,24.3 60.4,5.5 H 18.9 v 89 h 60 v -6.8 h 11 V 52.6 h -11 z M 58.4,7.7 76.9,26.3 H 58.4 Z M 86.9,55.6 V 84.7 H 30.4 V 55.6 Z"
           inkscape:connector-curvature="0" />
        <polygon
           id="polygon4565"
           points="35.3,70.2 36.4,70.2 36.4,69 37.4,69 37.4,73.8 36.2,73.8 36.2,74.9 39.9,74.9 39.9,73.8 38.7,73.8 38.7,69 39.7,69 39.7,70.2 40.8,70.2 40.8,67.9 35.3,67.9 " />
        <path
           id="path4567"
           d="m 43,74 c 0.2,0.3 0.5,0.6 0.8,0.8 0.3,0.2 0.7,0.3 1.2,0.3 0.9,0 1.5,-0.3 2,-1 0.5,-0.7 0.7,-1.5 0.7,-2.7 0,-0.5 0,-1 -0.1,-1.5 -0.1,-0.4 -0.2,-0.8 -0.5,-1.1 -0.3,-0.3 -0.5,-0.6 -0.8,-0.8 -0.3,-0.2 -0.7,-0.3 -1.2,-0.3 -0.4,0 -0.8,0.1 -1.2,0.2 -0.3,0.2 -0.6,0.4 -0.8,0.7 -0.2,0.3 -0.4,0.7 -0.5,1.1 -0.1,0.5 -0.2,1 -0.2,1.5 0,0.5 0,1 0.1,1.5 0.1,0.5 0.3,1 0.5,1.3 z m 1.1,-4.4 c 0.2,-0.4 0.5,-0.6 1,-0.6 0.3,0 0.5,0.1 0.6,0.2 0.2,0.1 0.3,0.3 0.4,0.5 0.1,0.2 0.1,0.5 0.2,0.8 0,0.3 0,0.6 0,0.9 0,0.4 0,0.8 -0.1,1.1 0,0.3 -0.1,0.6 -0.2,0.8 -0.1,0.2 -0.2,0.3 -0.4,0.4 -0.2,0.1 -0.3,0.1 -0.6,0.1 -0.3,0 -0.5,-0.1 -0.6,-0.2 -0.2,-0.1 -0.3,-0.3 -0.4,-0.5 -0.1,-0.2 -0.1,-0.5 -0.2,-0.8 0,-0.3 0,-0.6 0,-1 0,-0.7 0.1,-1.3 0.3,-1.7 z"
           inkscape:connector-curvature="0" />
        <path
           id="path4569"
           d="m 51,72.2 h 0.8 l 1.4,2.7 h 1.6 l -1.7,-3.1 c 0.2,-0.1 0.3,-0.2 0.5,-0.3 0.1,-0.1 0.3,-0.3 0.4,-0.4 0.1,-0.1 0.2,-0.3 0.2,-0.6 0.1,-0.2 0.1,-0.5 0.1,-0.7 0,-0.4 -0.1,-0.7 -0.2,-1 -0.2,-0.3 -0.4,-0.5 -0.6,-0.6 -0.2,-0.2 -0.5,-0.3 -0.9,-0.3 -0.3,-0.1 -0.6,-0.1 -1,-0.1 -0.1,0 -0.3,0 -0.5,0 -0.2,0 -0.3,0 -0.5,0 -0.2,0 -0.4,0 -0.5,0.1 -0.2,0 -0.3,0 -0.5,0.1 v 6.9 H 51 Z m 0,-3.1 c 0.1,0 0.2,0 0.3,0 0.1,0 0.3,0 0.4,0 0.4,0 0.6,0.1 0.8,0.3 0.2,0.2 0.3,0.4 0.3,0.7 0,0.4 -0.1,0.7 -0.4,0.9 -0.2,0.2 -0.5,0.3 -0.9,0.3 H 51 Z"
           inkscape:connector-curvature="0" />
        <path
           id="path4571"
           d="m 58,72.2 h 0.8 l 1.4,2.7 h 1.6 l -1.7,-3.1 c 0.2,-0.1 0.3,-0.2 0.5,-0.3 0.1,-0.1 0.3,-0.3 0.4,-0.4 0.1,-0.1 0.2,-0.3 0.2,-0.6 0.1,-0.2 0.1,-0.5 0.1,-0.7 0,-0.4 -0.1,-0.7 -0.2,-1 -0.2,-0.3 -0.4,-0.5 -0.6,-0.6 -0.2,-0.2 -0.5,-0.3 -0.9,-0.3 -0.3,-0.1 -0.6,-0.1 -1,-0.1 -0.1,0 -0.3,0 -0.5,0 -0.2,0 -0.3,0 -0.5,0 -0.2,0 -0.4,0 -0.5,0.1 -0.2,0 -0.3,0 -0.5,0.1 v 6.9 H 58 Z m 0,-3.1 c 0.1,0 0.2,0 0.3,0 0.1,0 0.3,0 0.4,0 0.4,0 0.6,0.1 0.8,0.3 0.2,0.2 0.3,0.4 0.3,0.7 0,0.4 -0.1,0.7 -0.4,0.9 -0.2,0.2 -0.5,0.3 -0.9,0.3 H 58 Z"
           inkscape:connector-curvature="0" />
        <polygon
           id="polygon4573"
           points="65.1,69.1 68.3,69.1 68.3,67.9 63.7,67.9 63.7,74.9 68.4,74.9 68.4,73.7 65.1,73.7 65.1,72 68.1,72 68.1,70.8 65.1,70.8 " />
        <polygon
           id="polygon4575"
           points="74.3,72.2 74.2,72.2 71.8,67.9 70.6,67.9 70.6,74.9 71.9,74.9 71.9,71.6 71.8,70.8 71.9,70.8 74.3,74.9 75.5,74.9 75.5,67.9 74.2,67.9 74.2,71.4 " />
        <polygon
           id="polygon4577"
           points="77.3,70.2 78.4,70.2 78.4,69 79.4,69 79.4,73.8 78.2,73.8 78.2,74.9 81.9,74.9 81.9,73.8 80.7,73.8 80.7,69 81.7,69 81.7,70.2 82.8,70.2 82.8,67.9 77.3,67.9 " />
      </g>
    </g>
    <path
       style="opacity:1;vector-effect:none;fill:#000000;fill-opacity:1;stroke-width:1.64582813;stroke-linecap:butt;stroke-linejoin:miter;stroke-miterlimit:4;stroke-dasharray:none;stroke-dashoffset:0;stroke-opacity:1"
       d="m 1364.5732,169.25349 c -14.9306,-21.2732 -15.9113,-52.25979 -2.3846,-75.341322 4.139,-7.062616 8.5024,-13.444949 9.6966,-14.182973 1.1942,-0.738045 5.9607,1.917735 10.5924,5.901705 l 8.4211,7.24359 -5.9928,10.72405 c -7.9861,14.29113 -9.7896,37.48673 -3.6674,47.1704 4.9521,7.83275 9.3721,-0.46715 5.7626,-10.82109 -3.6882,-10.5802 0.4335,-30.01908 7.6318,-35.99318 3.7897,-3.1451 5.6775,-2.59866 11.6474,3.37123 6.4614,6.4613 6.7972,7.99247 3.6073,16.44357 -3.1585,8.36792 -2.8287,10.05203 3.2326,16.50396 9.9623,10.60439 6.2749,16.77067 -3.9276,6.56811 -7.1214,-7.1214 -7.9769,-9.80881 -6.7076,-21.07014 1.0744,-9.53234 0.4387,-12.90766 -2.431,-12.90766 -5.8338,0 -8.3673,18.99595 -3.9544,29.64959 3.5413,8.54947 3.2714,9.5673 -4.2538,16.0402 -9.3223,8.01864 -12.5121,6.86328 -18.1223,-6.56384 -5.784,-13.84309 -5.077,-34.48404 1.6315,-47.6339 5.2934,-10.375768 5.263,-14.833329 -0.101,-14.833329 -1.1941,0 -4.9141,5.666325 -8.2666,12.591809 -8.4445,17.44396 -8.0296,38.03487 1.1312,56.1296 8.06,15.92059 5.4939,23.88906 -3.5454,11.00962 z m 112.1785,5.8719 c -0.9845,-1.59291 1.4291,-9.25473 5.3636,-17.02628 9.0849,-17.94507 9.4752,-38.59709 1.0579,-55.98484 -3.3525,-6.925484 -7.0726,-12.591809 -8.2667,-12.591809 -5.364,0 -5.3943,4.457561 -0.1011,14.833329 6.7086,13.14986 7.4156,33.79081 1.6316,47.6339 -5.6102,13.42712 -8.8001,14.58248 -18.1223,6.56384 -7.5252,-6.4729 -7.7951,-7.49073 -4.2538,-16.0402 4.4129,-10.65364 1.8794,-29.64959 -3.9544,-29.64959 -2.8697,0 -3.5055,3.37532 -2.431,12.90766 1.2693,11.26133 0.4138,13.94874 -6.7076,21.07014 -10.2026,10.20256 -13.89,4.03628 -3.9276,-6.56811 6.0613,-6.45193 6.3911,-8.13604 3.2326,-16.50396 -3.1899,-8.4511 -2.8541,-9.98227 3.6072,-16.44357 5.97,-5.96989 7.8578,-6.51633 11.6475,-3.37123 7.1984,5.9741 11.32,25.41298 7.6317,35.99318 -3.6093,10.35394 0.8106,18.65384 5.7626,10.82109 6.0709,-9.60245 4.3475,-33.09011 -3.4055,-46.4141 l -5.8002,-9.967743 8.6479,-8.647909 8.6479,-8.64789 7.6501,11.560075 c 13.2158,19.970337 16.5547,40.588837 10.0752,62.215467 -3.8513,12.85468 -15.4037,28.43622 -17.9857,24.25855 z m -54.5891,-28.12502 c 0,-5.29555 -1.4872,-11.11556 -3.3051,-12.93335 -4.7284,-4.72846 -0.869,-12.45029 6.2227,-12.45029 7.0919,0 10.9513,7.72183 6.2228,12.45029 -1.8178,1.81779 -3.3051,7.6378 -3.3051,12.93335 0,5.29555 -1.3129,9.62829 -2.9177,9.62829 -1.6046,0 -2.9176,-4.33274 -2.9176,-9.62829 z"
       id="switch.mosquitto"
       inkscape:connector-curvature="0"
       inkscape:label="switch.mosquitto" />
    <g
       id="switch.influxdb"
       transform="matrix(0.26458333,0,0,0.26458333,1567.0437,127.0371)"
       style="opacity:1;vector-effect:none;fill:#000000;fill-opacity:1;stroke-width:6.22045279;stroke-linecap:butt;stroke-linejoin:miter;stroke-miterlimit:4;stroke-dasharray:none;stroke-dashoffset:0;stroke-opacity:1"
       inkscape:label="switch.influxdb">
      <path
         d="M 487.20762,38.765111 435.23407,-187.44361 c -2.96992,-12.37465 -14.3546,-24.74931 -26.23427,-28.21421 L 171.90138,-288.4208 c -2.96992,-0.98997 -6.43482,-1.48496 -9.89972,-1.48496 -10.39471,0 -20.78943,3.95989 -27.71923,9.89973 l -170.275274,157.90061 c -8.909753,8.41477 -14.354601,24.749312 -11.384684,36.628982 L 8.060932,156.57184 c 2.969918,12.37466 14.354602,24.74931 26.234272,28.21422 l 221.753836,68.3081 c 2.96992,0.98997 6.43483,1.48496 9.89973,1.48496 10.39471,0 20.78942,-3.95989 27.71923,-9.89973 L 475.82294,75.88908 c 9.40474,-8.909752 14.3546,-24.749312 11.38468,-37.123969 z M 196.15571,-234.4673 358.5112,-184.47369 c 6.43482,1.97995 6.43482,4.94986 0,6.43482 l -85.63262,19.79945 c -6.43482,1.48496 -15.34458,-1.48496 -19.79945,-5.93983 l -59.89334,-64.34821 c -4.94986,-5.44485 -3.4649,-7.91978 2.96992,-5.93984 z M 297.62789,57.574589 c 1.48496,6.434821 -2.47493,10.394711 -8.90975,8.414766 L 112.99802,11.540868 C 106.5632,9.560923 105.57322,4.116074 110.52309,-0.33880303 L 245.15935,-125.07534 c 4.94986,-4.45487 9.89972,-2.96992 11.38468,3.46491 z M 8.060932,-102.30597 150.61697,-234.96229 c 4.94987,-4.45487 12.37466,-4.45487 17.32452,0.49499 l 71.77301,77.21786 c 4.45487,4.94986 4.45487,12.37465 -0.49499,17.32451 L 96.16849,-7.2686101 c -4.94987,4.454876 -12.374661,4.454876 -17.324524,-0.4949863 L 7.565946,-84.981452 C 3.11107,-89.931314 3.606056,-97.851094 8.060932,-102.30597 Z M 42.70997,108.55817 5.091015,-57.262222 c -1.484959,-6.434821 0.989972,-7.91978 5.444849,-2.969917 L 70.4292,4.116074 c 4.454876,4.949862 6.434821,13.859615 4.454876,20.294436 l -25.739285,84.14766 c -1.979945,6.43482 -4.949862,6.43482 -6.434821,0 z m 208.8842,96.52232 -186.114832,-57.4184 c -6.434822,-1.97995 -9.899726,-8.90976 -7.919781,-15.34458 L 88.743691,31.835304 c 1.979949,-6.434821 8.909749,-9.899725 15.344579,-7.91978 l 185.61984,57.418405 c 6.43482,1.979945 9.89972,8.909751 7.91978,15.344571 l -31.18413,100.48221 c -1.48496,6.43482 -8.41477,9.89973 -14.84959,7.91978 z M 416.91958,69.949245 292.18304,185.28104 c -4.94986,4.45488 -7.42479,2.96992 -5.44485,-3.4649 l 25.73929,-84.14766 c 1.97994,-6.43483 8.90975,-12.869647 15.34457,-14.354606 l 85.63262,-19.79945 c 6.92981,-0.989972 8.41477,1.484959 3.46491,6.434821 z M 430.77919,45.199933 328.31704,68.464287 c -6.43482,1.484958 -12.86965,-2.474932 -14.3546,-8.909753 L 270.40365,-130.0252 c -1.48496,-6.43482 2.47493,-12.86964 8.90975,-14.3546 l 102.46215,-23.26436 c 6.43482,-1.48495 12.86965,2.47494 14.3546,8.90976 l 43.55879,189.579731 c 1.48496,6.434822 -2.47493,12.869643 -8.90975,14.354602 z"
         class="st0"
         id="cuboctahedron"
         inkscape:connector-curvature="0"
         style="vector-effect:none;fill:#000000;fill-opacity:1;stroke-width:30.7903862;stroke-linecap:butt;stroke-linejoin:miter;stroke-miterlimit:4;stroke-dasharray:none;stroke-dashoffset:0;stroke-opacity:1" />
    </g>
    <flowRoot
       xml:space="preserve"
       id="flowRoot4598"
       style="font-style:normal;font-weight:normal;font-size:40px;line-height:1.25;font-family:sans-serif;letter-spacing:0px;word-spacing:0px;fill:#000000;fill-opacity:1;stroke:none"
       transform="matrix(0.26458333,0,0,0.26458333,338.03235,33.771217)"><flowRegion
         id="flowRegion4600"><rect
           id="rect4602"
           width="188.97638"
           height="113.38583"
           x="649.95447"
           y="579.13385" /></flowRegion><flowPara
         id="flowPara4604"></flowPara></flowRoot>    <text
       xml:space="preserve"
       style="font-style:normal;font-weight:normal;font-size:10.58333302px;line-height:1.25;font-family:sans-serif;letter-spacing:0px;word-spacing:0px;fill:#000000;fill-opacity:1;stroke:none"
       x="425.69641"
       y="226.83989"
       id="text4608"><tspan
         sodipodi:role="line"
         id="tspan4606"
         x="425.69641"
         y="226.83989"
         style="font-style:normal;font-variant:normal;font-weight:bold;font-stretch:normal;font-size:16.93333244px;font-family:sans-serif;-inkscape-font-specification:'sans-serif Bold';text-align:center;text-anchor:middle">Discord bot</tspan></text>
    <text
       xml:space="preserve"
       style="font-style:normal;font-variant:normal;font-weight:bold;font-stretch:normal;font-size:16.93333244px;line-height:1.25;font-family:sans-serif;-inkscape-font-specification:'sans-serif Bold';font-variant-ligatures:normal;font-variant-position:normal;font-variant-caps:normal;font-variant-numeric:normal;font-variant-alternates:normal;font-feature-settings:normal;text-indent:0;text-align:center;text-decoration:none;text-decoration-line:none;text-decoration-style:solid;text-decoration-color:#000000;letter-spacing:0px;word-spacing:0px;text-transform:none;writing-mode:lr-tb;direction:ltr;text-orientation:mixed;dominant-baseline:auto;baseline-shift:baseline;text-anchor:middle;white-space:normal;shape-padding:0;opacity:1;vector-effect:none;fill:#000000;fill-opacity:1;stroke:none;stroke-width:1;stroke-linecap:butt;stroke-linejoin:miter;stroke-miterlimit:4;stroke-dasharray:none;stroke-dashoffset:0;stroke-opacity:1"
       x="625.5097"
       y="226.16705"
       id="text4614"><tspan
         sodipodi:role="line"
         id="tspan4612"
         x="625.5097"
         y="226.16705">Telegram bot</tspan></text>
    <text
       xml:space="preserve"
       style="font-style:normal;font-variant:normal;font-weight:bold;font-stretch:normal;font-size:16.93333244px;line-height:1.25;font-family:sans-serif;-inkscape-font-specification:'sans-serif Bold';font-variant-ligatures:normal;font-variant-position:normal;font-variant-caps:normal;font-variant-numeric:normal;font-variant-alternates:normal;font-feature-settings:normal;text-indent:0;text-align:center;text-decoration:none;text-decoration-line:none;text-decoration-style:solid;text-decoration-color:#000000;letter-spacing:0px;word-spacing:0px;text-transform:none;writing-mode:lr-tb;direction:ltr;text-orientation:mixed;dominant-baseline:auto;baseline-shift:baseline;text-anchor:middle;white-space:normal;shape-padding:0;opacity:1;vector-effect:none;fill:#000000;fill-opacity:1;stroke:none;stroke-width:1;stroke-linecap:butt;stroke-linejoin:miter;stroke-miterlimit:4;stroke-dasharray:none;stroke-dashoffset:0;stroke-opacity:1"
       x="825.11658"
       y="227.07413"
       id="text4634"><tspan
         sodipodi:role="line"
         id="tspan4632"
         x="825.11658"
         y="227.07413">ASF bot</tspan></text>
    <text
       xml:space="preserve"
       style="font-style:normal;font-variant:normal;font-weight:bold;font-stretch:normal;font-size:16.93333244px;line-height:1.25;font-family:sans-serif;-inkscape-font-specification:'sans-serif Bold';font-variant-ligatures:normal;font-variant-position:normal;font-variant-caps:normal;font-variant-numeric:normal;font-variant-alternates:normal;font-feature-settings:normal;text-indent:0;text-align:center;text-decoration:none;text-decoration-line:none;text-decoration-style:solid;text-decoration-color:#000000;letter-spacing:0px;word-spacing:0px;text-transform:none;writing-mode:lr-tb;direction:ltr;text-orientation:mixed;dominant-baseline:auto;baseline-shift:baseline;text-anchor:middle;white-space:normal;shape-padding:0;opacity:1;vector-effect:none;fill:#000000;fill-opacity:1;stroke:none;stroke-width:1;stroke-linecap:butt;stroke-linejoin:miter;stroke-miterlimit:4;stroke-dasharray:none;stroke-dashoffset:0;stroke-opacity:1"
       x="1024.5198"
       y="226.6123"
       id="text4644"><tspan
         sodipodi:role="line"
         id="tspan4642"
         x="1024.5198"
         y="226.6123">MySQL</tspan></text>
    <text
       xml:space="preserve"
       style="font-style:normal;font-variant:normal;font-weight:bold;font-stretch:normal;font-size:16.93333244px;line-height:1.25;font-family:sans-serif;-inkscape-font-specification:'sans-serif Bold';font-variant-ligatures:normal;font-variant-position:normal;font-variant-caps:normal;font-variant-numeric:normal;font-variant-alternates:normal;font-feature-settings:normal;text-indent:0;text-align:center;text-decoration:none;text-decoration-line:none;text-decoration-style:solid;text-decoration-color:#000000;letter-spacing:0px;word-spacing:0px;text-transform:none;writing-mode:lr-tb;direction:ltr;text-orientation:mixed;dominant-baseline:auto;baseline-shift:baseline;text-anchor:middle;white-space:normal;shape-padding:0;opacity:1;vector-effect:none;fill:#000000;fill-opacity:1;stroke:none;stroke-width:1;stroke-linecap:butt;stroke-linejoin:miter;stroke-miterlimit:4;stroke-dasharray:none;stroke-dashoffset:0;stroke-opacity:1"
       x="1225.4698"
       y="226.84868"
       id="text4654"><tspan
         sodipodi:role="line"
         id="tspan4652"
         x="1225.4698"
         y="226.84868">Transmission</tspan></text>
    <text
       xml:space="preserve"
       style="font-style:normal;font-variant:normal;font-weight:bold;font-stretch:normal;font-size:16.93333244px;line-height:1.25;font-family:sans-serif;-inkscape-font-specification:'sans-serif Bold';font-variant-ligatures:normal;font-variant-position:normal;font-variant-caps:normal;font-variant-numeric:normal;font-variant-alternates:normal;font-feature-settings:normal;text-indent:0;text-align:center;text-decoration:none;text-decoration-line:none;text-decoration-style:solid;text-decoration-color:#000000;letter-spacing:0px;word-spacing:0px;text-transform:none;writing-mode:lr-tb;direction:ltr;text-orientation:mixed;dominant-baseline:auto;baseline-shift:baseline;text-anchor:middle;white-space:normal;shape-padding:0;opacity:1;vector-effect:none;fill:#000000;fill-opacity:1;stroke:none;stroke-width:1;stroke-linecap:butt;stroke-linejoin:miter;stroke-miterlimit:4;stroke-dasharray:none;stroke-dashoffset:0;stroke-opacity:1"
       x="1425.9204"
       y="226.77744"
       id="text4664"><tspan
         sodipodi:role="line"
         id="tspan4662"
         x="1425.9204"
         y="226.77744">Mosquitto</tspan></text>
    <text
       xml:space="preserve"
       style="font-style:normal;font-variant:normal;font-weight:bold;font-stretch:normal;font-size:16.93333244px;line-height:1.25;font-family:sans-serif;-inkscape-font-specification:'sans-serif Bold';font-variant-ligatures:normal;font-variant-position:normal;font-variant-caps:normal;font-variant-numeric:normal;font-variant-alternates:normal;font-feature-settings:normal;text-indent:0;text-align:center;text-decoration:none;text-decoration-line:none;text-decoration-style:solid;text-decoration-color:#000000;letter-spacing:0px;word-spacing:0px;text-transform:none;writing-mode:lr-tb;direction:ltr;text-orientation:mixed;dominant-baseline:auto;baseline-shift:baseline;text-anchor:middle;white-space:normal;shape-padding:0;opacity:1;vector-effect:none;fill:#000000;fill-opacity:1;stroke:none;stroke-width:1;stroke-linecap:butt;stroke-linejoin:miter;stroke-miterlimit:4;stroke-dasharray:none;stroke-dashoffset:0;stroke-opacity:1"
       x="1625.3667"
       y="226.59108"
       id="text4674"><tspan
         sodipodi:role="line"
         id="tspan4672"
         x="1625.3667"
         y="226.59108">InfluxDB</tspan></text>
    <text
       xml:space="preserve"
       style="font-style:normal;font-variant:normal;font-weight:bold;font-stretch:normal;font-size:16.93333244px;line-height:1.25;font-family:sans-serif;-inkscape-font-specification:'sans-serif Bold';font-variant-ligatures:normal;font-variant-position:normal;font-variant-caps:normal;font-variant-numeric:normal;font-variant-alternates:normal;font-feature-settings:normal;text-indent:0;text-align:center;text-decoration:none;text-decoration-line:none;text-decoration-style:solid;text-decoration-color:#000000;letter-spacing:0px;word-spacing:0px;text-transform:none;writing-mode:lr-tb;direction:ltr;text-orientation:mixed;dominant-baseline:auto;baseline-shift:baseline;text-anchor:middle;white-space:normal;shape-padding:0;opacity:1;vector-effect:none;fill:#000000;fill-opacity:1;stroke:none;stroke-width:1;stroke-linecap:butt;stroke-linejoin:miter;stroke-miterlimit:4;stroke-dasharray:none;stroke-dashoffset:0;stroke-opacity:1"
       x="424.21689"
       y="417.16205"
       id="text4684"><tspan
         sodipodi:role="line"
         id="tspan4682"
         x="424.21689"
         y="417.16205">Project Zomboid</tspan><tspan
         sodipodi:role="line"
         x="424.21689"
         y="438.3287"
         id="tspan4692">Server</tspan></text>
    <text
       xml:space="preserve"
       style="font-style:normal;font-variant:normal;font-weight:bold;font-stretch:normal;font-size:16.93333244px;line-height:1.25;font-family:sans-serif;-inkscape-font-specification:'sans-serif Bold';font-variant-ligatures:normal;font-variant-position:normal;font-variant-caps:normal;font-variant-numeric:normal;font-variant-alternates:normal;font-feature-settings:normal;text-indent:0;text-align:center;text-decoration:none;text-decoration-line:none;text-decoration-style:solid;text-decoration-color:#000000;letter-spacing:0px;word-spacing:0px;text-transform:none;writing-mode:lr-tb;direction:ltr;text-orientation:mixed;dominant-baseline:auto;baseline-shift:baseline;text-anchor:middle;white-space:normal;shape-padding:0;opacity:1;vector-effect:none;fill:#000000;fill-opacity:1;stroke:none;stroke-width:1;stroke-linecap:butt;stroke-linejoin:miter;stroke-miterlimit:4;stroke-dasharray:none;stroke-dashoffset:0;stroke-opacity:1"
       x="624.96655"
       y="426.73123"
       id="text4696"><tspan
         sodipodi:role="line"
         id="tspan4694"
         x="624.96655"
         y="426.73123">7d2d  Server</tspan></text>
  </g>
  <style
     id="style5353"
     type="text/css">
	.st0{fill:#FFFFFF;}
</style>
</svg>
